<svg width="35" height="35" viewBox="0 0 35 35" fill="none" xmlns="http://www.w3.org/2000/svg">
<g clip-path="url(#clip0)">
<path d="M25.5208 35C20.2942 35 16.0417 30.7475 16.0417 25.5208C16.0417 20.2942 20.2942 16.0417 25.5208 16.0417C30.7475 16.0417 35 20.2942 35 25.5208C35 30.7475 30.7475 35 25.5208 35ZM25.5208 18.2292C21.5002 18.2292 18.2292 21.5002 18.2292 25.5208C18.2292 29.5415 21.5002 32.8125 25.5208 32.8125C29.5414 32.8125 32.8125 29.5415 32.8125 25.5208C32.8125 21.5002 29.5414 18.2292 25.5208 18.2292Z" fill="#A8C8D9"/>
<path d="M24.0625 29.1667C23.7737 29.1667 23.4937 29.0515 23.2896 28.8458L20.3729 25.9292C19.9456 25.5019 19.9456 24.8092 20.3729 24.3819C20.8002 23.9546 21.4929 23.9546 21.9202 24.3819L24.0115 26.4717L28.3456 21.5192C28.7452 21.0642 29.435 21.0219 29.89 21.4171C30.345 21.8137 30.3902 22.5065 29.9921 22.9615L24.8879 28.7948C24.6867 29.0208 24.4008 29.1565 24.099 29.1667C24.0873 29.1667 24.0742 29.1667 24.0625 29.1667Z" fill="#A8C8D9"/>
<path d="M12.0312 29.1667H3.28125C1.47292 29.1667 0 27.6937 0 25.8854V13.4896C0 11.6812 1.47292 10.2083 3.28125 10.2083H20.0521C20.9927 10.2083 21.8823 10.6094 22.4948 11.3123C22.8915 11.7673 22.8463 12.4571 22.3913 12.8552C21.9392 13.2533 21.2465 13.2081 20.8483 12.7517C20.65 12.5256 20.3612 12.3958 20.0521 12.3958H3.28125C2.67896 12.3958 2.1875 12.8873 2.1875 13.4896V25.8854C2.1875 26.4877 2.67896 26.9792 3.28125 26.9792H12.0312C12.635 26.9792 13.125 27.4692 13.125 28.0729C13.125 28.6767 12.635 29.1667 12.0312 29.1667Z" fill="#A8C8D9"/>
<path d="M17.8646 12.3958C17.2608 12.3958 16.7708 11.9058 16.7708 11.3021V7.29166C16.7708 4.47708 14.4812 2.1875 11.6667 2.1875C8.85208 2.1875 6.5625 4.47708 6.5625 7.29166V11.3021C6.5625 11.9058 6.0725 12.3958 5.46875 12.3958C4.865 12.3958 4.375 11.9058 4.375 11.3021V7.29166C4.375 3.27104 7.64604 -3.8147e-06 11.6667 -3.8147e-06C15.6873 -3.8147e-06 18.9583 3.27104 18.9583 7.29166V11.3021C18.9583 11.9058 18.4683 12.3958 17.8646 12.3958Z" fill="#A8C8D9"/>
</g>
<defs>
<clipPath id="clip0">
<rect width="35" height="35" fill="white"/>
</clipPath>
</defs>
</svg>
