<svg width="92" height="92" viewBox="0 0 92 92" fill="none" xmlns="http://www.w3.org/2000/svg">
<path d="M82.5748 78.3088H9.32661C6.38478 78.3088 4 75.924 4 72.9822V24.091C4 21.1492 6.38478 18.7644 9.32661 18.7644H82.5746C85.5165 18.7644 87.9013 21.1492 87.9013 24.091V72.9824C87.9013 75.924 85.5165 78.3088 82.5748 78.3088Z" fill="url(#paint0_linear)"/>
<path d="M79.6852 74.3811H12.216C9.87737 74.3811 7.98145 72.4852 7.98145 70.1466V26.9264C7.98145 24.5878 9.87737 22.6919 12.216 22.6919H79.6852C82.0238 22.6919 83.9197 24.5878 83.9197 26.9264V70.1466C83.9197 72.4852 82.0238 74.3811 79.6852 74.3811Z" fill="url(#paint1_linear)"/>
<path d="M77.6055 71.8285H14.2961C12.148 71.8285 10.4067 70.0872 10.4067 67.939V29.134C10.4067 26.9859 12.148 25.2446 14.2961 25.2446H77.6057C79.7538 25.2446 81.4951 26.9859 81.4951 29.134V67.939C81.4951 70.0872 79.7536 71.8285 77.6055 71.8285Z" fill="url(#paint2_linear)"/>
<path d="M34.2723 61.0781H17.0977C15.9046 61.0781 14.9375 60.1109 14.9375 58.9179V38.1553C14.9375 36.9622 15.9047 35.9951 17.0977 35.9951H34.2723C35.4654 35.9951 36.4325 36.9624 36.4325 38.1553V58.9178C36.4325 60.1109 35.4654 61.0781 34.2723 61.0781Z" fill="url(#paint3_linear)"/>
<path d="M54.0805 42.2466H42.3017C41.4386 42.2466 40.7388 41.5469 40.7388 40.6837V37.5581C40.7388 36.6949 41.4386 35.9951 42.3017 35.9951H54.0805C54.9436 35.9951 55.6434 36.6949 55.6434 37.5581V40.6837C55.6434 41.5469 54.9436 42.2466 54.0805 42.2466Z" fill="#B5DBFF"/>
<path d="M75.4013 42.2466H60.7266C59.8634 42.2466 59.1636 41.5469 59.1636 40.6837V37.5581C59.1636 36.6949 59.8634 35.9951 60.7266 35.9951H75.4013C76.2645 35.9951 76.9642 36.6949 76.9642 37.5581V40.6837C76.964 41.5469 76.2645 42.2466 75.4013 42.2466Z" fill="#B5DBFF"/>
<path d="M69.5116 51.6624H75.4011C76.2643 51.6624 76.964 50.9627 76.964 50.0995V46.9738C76.964 46.1107 76.2643 45.4109 75.4011 45.4109H69.5116C68.6485 45.4109 67.9487 46.1107 67.9487 46.9738V50.0995C67.9487 50.9627 68.6485 51.6624 69.5116 51.6624Z" fill="#B5DBFF"/>
<path d="M42.3007 51.6624H62.8647C63.7279 51.6624 64.4276 50.9627 64.4276 50.0995V46.9738C64.4276 46.1107 63.7279 45.4109 62.8647 45.4109H42.3007C41.4376 45.4109 40.7378 46.1107 40.7378 46.9738V50.0995C40.738 50.9627 41.4377 51.6624 42.3007 51.6624Z" fill="#B5DBFF"/>
<path d="M54.0799 61.0782H42.3012C41.438 61.0782 40.7383 60.3784 40.7383 59.5152V56.3896C40.7383 55.5264 41.438 54.8267 42.3012 54.8267H54.0799C54.9431 54.8267 55.6428 55.5264 55.6428 56.3896V59.5152C55.6428 60.3784 54.9431 61.0782 54.0799 61.0782Z" fill="#B5DBFF"/>
<path d="M75.4013 61.0782H60.7266C59.8634 61.0782 59.1636 60.3784 59.1636 59.5152V56.3896C59.1636 55.5264 59.8634 54.8267 60.7266 54.8267H75.4013C76.2645 54.8267 76.9642 55.5264 76.9642 56.3896V59.5152C76.964 60.3784 76.2645 61.0782 75.4013 61.0782Z" fill="#B5DBFF"/>
<path d="M13.8525 76.7388H12.6439C11.9507 76.7388 11.3887 76.1769 11.3887 75.4836V74.275C11.3887 73.5817 11.9507 73.0198 12.6439 73.0198H13.8525C14.5458 73.0198 15.1077 73.5817 15.1077 74.275V75.4836C15.1075 76.1769 14.5456 76.7388 13.8525 76.7388Z" fill="url(#paint4_linear)"/>
<path d="M76.2978 24.8516H13.6036C12.1384 24.8516 10.9507 26.0393 10.9507 27.5044V69.9647C10.9507 71.4299 12.1384 72.6176 13.6036 72.6176H76.2978C77.7629 72.6176 78.9507 71.4299 78.9507 69.9647V27.5044C78.9507 26.0393 77.7629 24.8516 76.2978 24.8516Z" fill="#FFF5F5"/>
<path d="M76.298 24.8516H45.106V72.6177H76.298C77.7631 72.6177 78.9509 71.43 78.9509 69.9649V27.5044C78.9509 26.0393 77.7633 24.8516 76.298 24.8516Z" fill="#F4F1F1"/>
<path d="M45.6056 34.4515H44.618C40.13 34.4515 36.4917 30.8133 36.4917 26.3252V16.3002C36.4917 15.0298 37.5215 14 38.7919 14H51.4315C52.7019 14 53.7317 15.0298 53.7317 16.3002V26.3252C53.7319 30.8133 50.0935 34.4515 45.6056 34.4515Z" fill="#FFDD54"/>
<path d="M69.2513 42.2912H52.2665C51.0986 42.2912 50.1519 41.3444 50.1519 40.1766C50.1519 39.0087 51.0987 38.062 52.2665 38.062H69.2512C70.4191 38.062 71.3658 39.0087 71.3658 40.1766C71.3658 41.3444 70.4191 42.2912 69.2513 42.2912Z" fill="#003140"/>
<path d="M69.2513 51.094H52.2665C51.0986 51.094 50.1519 50.1472 50.1519 48.9794C50.1519 47.8114 51.0987 46.8647 52.2665 46.8647H69.2512C70.4191 46.8647 71.3658 47.8115 71.3658 48.9794C71.3659 50.1472 70.4191 51.094 69.2513 51.094Z" fill="#003140"/>
<path d="M69.2513 59.4077H52.2665C51.0986 59.4077 50.1519 58.4609 50.1519 57.2931C50.1519 56.1251 51.0987 55.1785 52.2665 55.1785H69.2512C70.4191 55.1785 71.3658 56.1253 71.3658 57.2931C71.3659 58.4609 70.4191 59.4077 69.2513 59.4077Z" fill="#003140"/>
<path d="M38.3286 44.919H33.9746C33.4696 44.919 33.0603 44.5097 33.0603 44.0046V39.6506C33.0603 39.1456 32.6509 38.7363 32.1459 38.7363H26.3431C25.8381 38.7363 25.4287 39.1456 25.4287 39.6506V44.0046C25.4287 44.5097 25.0194 44.919 24.5144 44.919H20.1605C19.6555 44.919 19.2461 45.3284 19.2461 45.8334V51.6362C19.2461 52.1412 19.6555 52.5505 20.1605 52.5505H24.5145C25.0195 52.5505 25.4289 52.9599 25.4289 53.4649V57.8189C25.4289 58.3239 25.8382 58.7333 26.3432 58.7333H32.146C32.651 58.7333 33.0604 58.3239 33.0604 57.8189V53.4649C33.0604 52.9599 33.4697 52.5505 33.9748 52.5505H38.3288C38.8338 52.5505 39.2431 52.1412 39.2431 51.6362V45.8334C39.243 45.3284 38.8337 44.919 38.3286 44.919Z" fill="#FF4A4A"/>
<path d="M51.4316 14H45.106V34.4515H45.6056C50.0935 34.4515 53.7319 30.8133 53.7319 26.3252V16.3001C53.7319 15.0299 52.702 14 51.4316 14Z" fill="#FFD321"/>
<path d="M42.9971 14.013V25.356C42.9971 26.5239 43.9439 27.4706 45.1117 27.4706C46.2797 27.4706 47.2263 26.5238 47.2263 25.356V14.013C47.2263 14.0086 47.2257 14.0044 47.2257 14H42.9976C42.9978 14.0044 42.9971 14.0085 42.9971 14.013Z" fill="#FFD321"/>
<path d="M45.106 14V27.4703C45.108 27.4703 45.1098 27.4706 45.1118 27.4706C46.2798 27.4706 47.2265 26.5238 47.2265 25.356V14.013C47.2265 14.0086 47.2258 14.0044 47.2258 14H45.106Z" fill="#FFB454"/>
<defs>
<linearGradient id="paint0_linear" x1="28.7382" y1="31.3241" x2="85.0168" y2="87.6028" gradientUnits="userSpaceOnUse">
<stop stop-color="#0B799D"/>
<stop offset="1" stop-color="#07485E"/>
</linearGradient>
<linearGradient id="paint1_linear" x1="74.603" y1="77.1889" x2="8.08154" y2="10.6677" gradientUnits="userSpaceOnUse">
<stop stop-color="#0B799D"/>
<stop offset="1" stop-color="#07485E"/>
</linearGradient>
<linearGradient id="paint2_linear" x1="27.6184" y1="30.2043" x2="64.312" y2="66.8978" gradientUnits="userSpaceOnUse">
<stop stop-color="#EDF5FF"/>
<stop offset="1" stop-color="#D5E8FE"/>
</linearGradient>
<linearGradient id="paint3_linear" x1="12.7313" y1="35.5829" x2="41.6891" y2="64.5408" gradientUnits="userSpaceOnUse">
<stop stop-color="#B9DD39"/>
<stop offset="1" stop-color="#0B799D"/>
</linearGradient>
<linearGradient id="paint4_linear" x1="12.3452" y1="73.9764" x2="16.3723" y2="78.0035" gradientUnits="userSpaceOnUse">
<stop stop-color="#B9DD39"/>
<stop offset="1" stop-color="#0B799D"/>
</linearGradient>
</defs>
</svg>
