<svg width="29" height="28" viewBox="0 0 29 28" fill="none" xmlns="http://www.w3.org/2000/svg">
<path d="M14.4999 27.8663C22.195 27.8663 28.433 21.6282 28.433 13.9331C28.433 6.23808 22.195 0 14.4999 0C6.80485 0 0.566772 6.23808 0.566772 13.9331C0.566772 21.6282 6.80485 27.8663 14.4999 27.8663Z" fill="#FDB441"/>
<path d="M28.4332 13.9326C28.4332 21.6278 22.1951 27.866 14.4999 27.866C11.9674 27.866 9.59243 27.1905 7.54562 26.0089C9.14961 26.6533 10.9016 27.0083 12.7362 27.0083C20.4314 27.0083 26.6695 20.7702 26.6695 13.075C26.6695 7.9134 23.8624 3.40693 19.6905 1.00085C24.8145 3.05732 28.4332 8.07303 28.4332 13.9326V13.9326Z" fill="#FEA613"/>
<path d="M16.3562 22.4271C16.3562 23.4523 15.5252 24.2834 14.4999 24.2834C13.4746 24.2834 12.6436 23.4523 12.6436 22.4271C12.6436 21.4018 13.4747 20.5708 14.4999 20.5708C15.5251 20.5708 16.3562 21.4018 16.3562 22.4271V22.4271Z" fill="#9C9C9C"/>
<path d="M14.5156 17.4868C13.4989 17.4868 12.6747 16.6626 12.6747 15.6458V5.42398C12.6747 4.40723 13.4989 3.58303 14.5156 3.58303C15.5324 3.58303 16.3566 4.40723 16.3566 5.42398V15.6458C16.3566 16.6626 15.5324 17.4868 14.5156 17.4868Z" fill="#9C9C9C"/>
<path d="M16.356 22.4266C16.356 23.4527 15.525 24.2836 14.5 24.2836C13.9199 24.2836 13.4009 24.0166 13.0611 23.5995C13.9006 23.4215 14.53 22.6764 14.53 21.7832C14.53 21.3383 14.3735 20.9308 14.113 20.6113C14.2374 20.5845 14.3671 20.5705 14.5 20.5705C15.525 20.5706 16.356 21.4015 16.356 22.4266V22.4266Z" fill="#838383"/>
<path d="M16.356 5.42359V15.646C16.356 16.6625 15.5315 17.487 14.515 17.487C14.1827 17.487 13.8717 17.399 13.6026 17.2436C14.1569 16.9273 14.5301 16.3301 14.5301 15.646V5.42359C14.5301 4.73951 14.1569 4.14232 13.6026 3.82602C13.8717 3.6705 14.1827 3.58265 14.515 3.58265C15.5314 3.58255 16.356 4.40713 16.356 5.42359V5.42359Z" fill="#838383"/>
</svg>
