<svg width="28" height="28" viewBox="0 0 28 28" fill="none" xmlns="http://www.w3.org/2000/svg">
<path d="M14 28C21.732 28 28 21.732 28 14C28 6.26801 21.732 0 14 0C6.26801 0 0 6.26801 0 14C0 21.732 6.26801 28 14 28Z" fill="#3DB39E"/>
<path d="M25.7251 6.36565L13.3438 19.1845L13.3657 20.5626H13.9344L27.3439 9.75628C26.9501 8.55318 26.4033 7.39379 25.7251 6.36565Z" fill="#37A18E"/>
<path d="M27.7377 5.75318L25.2658 3.30315C24.9376 2.97501 24.3908 2.97501 24.0408 3.30315L13.4751 14.2188L8.90317 9.71257C8.57502 9.38443 8.02815 9.38443 7.67818 9.71257L5.49065 11.8782C5.1625 12.2064 5.1625 12.7532 5.49065 13.0814L12.797 20.322C12.9939 20.5189 13.2564 20.5845 13.5188 20.5626C13.7813 20.5845 14.0438 20.5188 14.2407 20.322L27.7377 6.97817C28.0658 6.62814 28.0658 6.08127 27.7377 5.75318Z" fill="#F2F1EF"/>
<path d="M14.2407 20.322L27.7377 6.97817C28.0658 6.65002 28.0658 6.10315 27.7377 5.77501L27.3439 5.40315L13.497 19.0095L5.84067 11.5501L5.51253 11.8782C5.18438 12.2064 5.18438 12.7532 5.51253 13.0814L12.8188 20.322C13.0157 20.5189 13.2782 20.5845 13.5407 20.5627C13.7813 20.5845 14.0438 20.5189 14.2407 20.322Z" fill="#E6E5E3"/>
</svg>
