<svg width="28" height="28" viewBox="0 0 28 28" fill="none" xmlns="http://www.w3.org/2000/svg">
<g clip-path="url(#clip0)">
<path d="M25.0537 7.36743C24.4738 7.64799 24.2311 8.34583 24.5117 8.92546C25.2782 10.5088 25.6667 12.2155 25.6667 14C25.6667 20.4329 20.4329 25.6667 14 25.6667C7.5671 25.6667 2.33333 20.4329 2.33333 14C2.33333 7.5671 7.5671 2.33333 14 2.33333C16.6657 2.33333 19.17 3.20378 21.2427 4.85038C21.7454 5.25171 22.4805 5.16768 22.8819 4.66325C23.2832 4.1591 23.1992 3.4248 22.6945 3.02405C20.2406 1.07381 17.1528 0 14 0C6.2808 0 0 6.2808 0 14C0 21.7192 6.2808 28 14 28C21.7192 28 28 21.7192 28 14C28 11.8609 27.5329 9.81099 26.6117 7.90946C26.3317 7.32841 25.6316 7.0863 25.0537 7.36743Z" fill="#A8C8D9"/>
<path d="M14 4.66667C13.356 4.66667 12.8333 5.18933 12.8333 5.83333V14C12.8333 14.644 13.356 15.1667 14 15.1667H19.8333C20.4773 15.1667 21 14.644 21 14C21 13.356 20.4773 12.8333 19.8333 12.8333H15.1667V5.83333C15.1667 5.18933 14.644 4.66667 14 4.66667Z" fill="#A8C8D9"/>
</g>
<defs>
<clipPath id="clip0">
<rect width="28" height="28" fill="white"/>
</clipPath>
</defs>
</svg>
