<svg width="37" height="37" viewBox="0 0 37 37" fill="none" xmlns="http://www.w3.org/2000/svg">
<g clip-path="url(#clip0)">
<path d="M18.5 4.33594C13.1207 4.33594 8.74414 8.71252 8.74414 14.0918C8.74414 19.4711 13.1207 23.8477 18.5 23.8477C23.8793 23.8477 28.2559 19.4711 28.2559 14.0918C28.2559 8.71252 23.8793 4.33594 18.5 4.33594ZM18.5 21.6797C14.3159 21.6797 10.9121 18.2759 10.9121 14.0918C10.9121 9.90773 14.3159 6.50391 18.5 6.50391C22.6841 6.50391 26.0879 9.90773 26.0879 14.0918C26.0879 18.2759 22.6841 21.6797 18.5 21.6797Z" fill="#A8C8D9"/>
<path d="M18.5 0C10.7298 0 4.4082 6.32155 4.4082 14.0918C4.4082 17.2633 5.43714 20.2584 7.38436 22.7535L18.5 37L29.6156 22.7532C31.5629 20.2584 32.5918 17.2633 32.5918 14.0918C32.5918 6.32155 26.2702 0 18.5 0V0ZM27.9064 21.4197L18.5 33.4756L9.09361 21.4197C7.44675 19.3093 6.57617 16.7755 6.57617 14.0918C6.57617 7.51704 11.9252 2.16797 18.5 2.16797C25.0748 2.16797 30.4238 7.51704 30.4238 14.0918C30.4238 16.7755 29.5533 19.3093 27.9064 21.4197Z" fill="#A8C8D9"/>
</g>
<defs>
<clipPath id="clip0">
<rect width="37" height="37" fill="white"/>
</clipPath>
</defs>
</svg>
