<svg width="29" height="29" viewBox="0 0 29 29" fill="none" xmlns="http://www.w3.org/2000/svg">
<path d="M25.6016 3.85156H3.39844C1.52454 3.85156 0 5.3761 0 7.25V21.75C0 23.6239 1.52454 25.1484 3.39844 25.1484H25.6016C27.4755 25.1484 29 23.6239 29 21.75V7.25C29 5.3761 27.4755 3.85156 25.6016 3.85156ZM25.3951 6.11719L14.5 14.221L3.60495 6.11719H25.3951ZM25.6016 22.8828H3.39844C2.7738 22.8828 2.26562 22.3746 2.26562 21.75V7.94458L14.5 17.0446L26.7344 7.94458V21.75C26.7344 22.3746 26.2262 22.8828 25.6016 22.8828Z" fill="url(#paint0_linear)"/>
<defs>
<linearGradient id="paint0_linear" x1="14.5" y1="3.85156" x2="14.5" y2="25.1484" gradientUnits="userSpaceOnUse">
<stop stop-color="#A8C8D9"/>
</linearGradient>
</defs>
</svg>
