<svg width="101" height="87" viewBox="0 0 101 87" fill="none" xmlns="http://www.w3.org/2000/svg">
<path d="M43.5 86.7323C67.373 86.7323 86.7258 67.3795 86.7258 43.5065C86.7258 19.6335 67.373 0.28067 43.5 0.28067C19.627 0.28067 0.274178 19.6335 0.274178 43.5065C0.274178 67.3795 19.627 86.7323 43.5 86.7323Z" fill="url(#paint0_linear)"/>
<path d="M43.5 68.3194C38.5856 68.3194 33.9653 66.4055 30.4904 62.9306L14.8448 47.2853C11.5732 44.0137 11.5732 38.7097 14.8448 35.4381C18.116 32.1669 23.4201 32.1669 26.6919 35.4381L42.3376 51.0837C42.7357 51.4819 43.1896 51.5654 43.5 51.5654C43.8104 51.5654 44.2643 51.4819 44.6625 51.0837L86.1492 9.59698C89.4208 6.32575 94.7248 6.32575 97.9964 9.59698C101.268 12.8685 101.268 18.1726 97.9964 21.4442L56.5096 62.9306C53.0347 66.4055 48.4144 68.3194 43.5 68.3194Z" fill="url(#paint1_linear)"/>
<defs>
<linearGradient id="paint0_linear" x1="23.3948" y1="23.4017" x2="65.0587" y2="65.0652" gradientUnits="userSpaceOnUse">
<stop stop-color="#B9DD39"/>
<stop offset="1" stop-color="#90CC1C"/>
</linearGradient>
<linearGradient id="paint1_linear" x1="39.6957" y1="11.7159" x2="82.8482" y2="54.8684" gradientUnits="userSpaceOnUse">
<stop stop-color="#0B799D"/>
<stop offset="1" stop-color="#07485E"/>
</linearGradient>
</defs>
</svg>
