<svg width="84" height="60" viewBox="0 0 84 60" fill="none" xmlns="http://www.w3.org/2000/svg">
<path d="M78.5749 60H5.32662C2.38478 60 0 57.6152 0 54.6734V5.78225C0 2.84041 2.38478 0.455627 5.32662 0.455627H78.5747C81.5165 0.455627 83.9013 2.84041 83.9013 5.78225V54.6736C83.9013 57.6152 81.5165 60 78.5749 60Z" fill="url(#paint0_linear)"/>
<path d="M75.6853 56.0723H8.21615C5.87754 56.0723 3.98162 54.1764 3.98162 51.8378V8.61764C3.98162 6.27904 5.87754 4.38312 8.21615 4.38312H75.6853C78.0239 4.38312 79.9199 6.27904 79.9199 8.61764V51.8378C79.9199 54.1764 78.0239 56.0723 75.6853 56.0723Z" fill="url(#paint1_linear)"/>
<path d="M73.6054 53.5198H10.2961C8.14796 53.5198 6.40663 51.7785 6.40663 49.6303V10.8253C6.40663 8.67718 8.14796 6.93585 10.2961 6.93585H73.6056C75.7537 6.93585 77.495 8.67718 77.495 10.8253V49.6303C77.495 51.7785 75.7535 53.5198 73.6054 53.5198Z" fill="url(#paint2_linear)"/>
<path d="M30.2725 42.7693H13.0979C11.9048 42.7693 10.9377 41.8021 10.9377 40.6091V19.8465C10.9377 18.6534 11.905 17.6863 13.0979 17.6863H30.2725C31.4656 17.6863 32.4327 18.6536 32.4327 19.8465V40.609C32.4327 41.8021 31.4656 42.7693 30.2725 42.7693Z" fill="url(#paint3_linear)"/>
<path d="M50.0806 23.9378H38.3019C37.4387 23.9378 36.739 23.2381 36.739 22.3749V19.2493C36.739 18.3861 37.4387 17.6863 38.3019 17.6863H50.0806C50.9438 17.6863 51.6435 18.3861 51.6435 19.2493V22.3749C51.6435 23.2381 50.9438 23.9378 50.0806 23.9378Z" fill="#B5DBFF"/>
<path d="M71.401 23.9378H56.7263C55.8631 23.9378 55.1634 23.2381 55.1634 22.3749V19.2493C55.1634 18.3861 55.8631 17.6863 56.7263 17.6863H71.401C72.2642 17.6863 72.9639 18.3861 72.9639 19.2493V22.3749C72.9638 23.2381 72.2642 23.9378 71.401 23.9378Z" fill="#B5DBFF"/>
<path d="M65.5116 33.3536H71.401C72.2642 33.3536 72.9639 32.6539 72.9639 31.7907V28.665C72.9639 27.8019 72.2642 27.1021 71.401 27.1021H65.5116C64.6484 27.1021 63.9487 27.8019 63.9487 28.665V31.7907C63.9487 32.6539 64.6484 33.3536 65.5116 33.3536Z" fill="#B5DBFF"/>
<path d="M38.3009 33.3536H58.8649C59.728 33.3536 60.4278 32.6539 60.4278 31.7907V28.665C60.4278 27.8019 59.728 27.1021 58.8649 27.1021H38.3009C37.4377 27.1021 36.738 27.8019 36.738 28.665V31.7907C36.7381 32.6539 37.4379 33.3536 38.3009 33.3536Z" fill="#B5DBFF"/>
<path d="M50.0798 42.7694H38.3011C37.4379 42.7694 36.7381 42.0696 36.7381 41.2064V38.0808C36.7381 37.2176 37.4379 36.5179 38.3011 36.5179H50.0798C50.9429 36.5179 51.6427 37.2176 51.6427 38.0808V41.2064C51.6427 42.0696 50.9429 42.7694 50.0798 42.7694Z" fill="#B5DBFF"/>
<path d="M71.401 42.7694H56.7263C55.8631 42.7694 55.1634 42.0696 55.1634 41.2064V38.0808C55.1634 37.2176 55.8631 36.5179 56.7263 36.5179H71.401C72.2642 36.5179 72.9639 37.2176 72.9639 38.0808V41.2064C72.9638 42.0696 72.2642 42.7694 71.401 42.7694Z" fill="#B5DBFF"/>
<path d="M9.85248 58.4299H8.64386C7.95061 58.4299 7.38869 57.868 7.38869 57.1747V55.9661C7.38869 55.2728 7.95061 54.7109 8.64386 54.7109H9.85248C10.5457 54.7109 11.1077 55.2728 11.1077 55.9661V57.1747C11.1075 57.868 10.5456 58.4299 9.85248 58.4299Z" fill="url(#paint4_linear)"/>
<path d="M21.6622 33.8397C25.4101 33.8397 28.4484 30.8014 28.4484 27.0535C28.4484 23.3056 25.4101 20.2674 21.6622 20.2674C17.9143 20.2674 14.876 23.3056 14.876 27.0535C14.876 30.8014 17.9143 33.8397 21.6622 33.8397Z" fill="#07485E"/>
<path d="M30.2063 38.4796C30.6771 39.0096 30.3414 39.8491 29.635 39.9097C27.6117 40.0831 24.9327 40.1883 21.9936 40.1883C18.7402 40.1883 15.8058 40.0595 13.7266 39.8524C13.0288 39.7829 12.694 38.9493 13.1634 38.4282C13.167 38.4242 13.1704 38.4204 13.174 38.4164C15.2633 36.0951 18.2919 34.636 21.6613 34.636C24.9944 34.636 27.9918 36.0623 30.0793 38.3391C30.1221 38.3856 30.1645 38.4323 30.2063 38.4796Z" fill="#07485E"/>
<defs>
<linearGradient id="paint0_linear" x1="24.7383" y1="13.0153" x2="81.0168" y2="69.2938" gradientUnits="userSpaceOnUse">
<stop stop-color="#0B799D"/>
<stop offset="1" stop-color="#07485E"/>
</linearGradient>
<linearGradient id="paint1_linear" x1="70.6031" y1="58.8801" x2="4.08173" y2="-7.64109" gradientUnits="userSpaceOnUse">
<stop stop-color="#0B799D"/>
<stop offset="1" stop-color="#07485E"/>
</linearGradient>
<linearGradient id="paint2_linear" x1="23.6184" y1="11.8956" x2="60.312" y2="48.5891" gradientUnits="userSpaceOnUse">
<stop stop-color="#EDF5FF"/>
<stop offset="1" stop-color="#D5E8FE"/>
</linearGradient>
<linearGradient id="paint3_linear" x1="8.73153" y1="17.2741" x2="37.6893" y2="46.232" gradientUnits="userSpaceOnUse">
<stop stop-color="#B9DD39"/>
<stop offset="1" stop-color="#0B799D"/>
</linearGradient>
<linearGradient id="paint4_linear" x1="8.34513" y1="55.6675" x2="12.3722" y2="59.6946" gradientUnits="userSpaceOnUse">
<stop stop-color="#B9DD39"/>
<stop offset="1" stop-color="#0B799D"/>
</linearGradient>
</defs>
</svg>
