<svg width="92" height="92" viewBox="0 0 92 92" fill="none" xmlns="http://www.w3.org/2000/svg">
<g clip-path="url(#clip0)">
<path d="M82.6241 92H9.37587C6.43404 92 4.04926 89.6152 4.04926 86.6734V37.7822C4.04926 34.8404 6.43404 32.4556 9.37587 32.4556H82.6239C85.5658 32.4556 87.9506 34.8404 87.9506 37.7822V86.6736C87.9506 89.6152 85.5658 92 82.6241 92Z" fill="url(#paint0_linear)"/>
<path d="M79.7346 88.0723H12.2654C9.9268 88.0723 8.03088 86.1764 8.03088 83.8378V40.6176C8.03088 38.279 9.9268 36.3831 12.2654 36.3831H79.7346C82.0732 36.3831 83.9691 38.279 83.9691 40.6176V83.8378C83.9691 86.1764 82.0732 88.0723 79.7346 88.0723Z" fill="url(#paint1_linear)"/>
<path d="M77.6547 85.5198H14.3453C12.1972 85.5198 10.4559 83.7785 10.4559 81.6303V42.8253C10.4559 40.6772 12.1972 38.9359 14.3453 38.9359H77.6549C79.803 38.9359 81.5443 40.6772 81.5443 42.8253V81.6303C81.5443 83.7785 79.8028 85.5198 77.6547 85.5198Z" fill="url(#paint2_linear)"/>
<path d="M34.3218 74.7693H17.1472C15.9541 74.7693 14.987 73.8021 14.987 72.6091V51.8465C14.987 50.6534 15.9542 49.6863 17.1472 49.6863H34.3218C35.5149 49.6863 36.482 50.6536 36.482 51.8465V72.609C36.482 73.8021 35.5149 74.7693 34.3218 74.7693Z" fill="url(#paint3_linear)"/>
<path d="M54.1299 55.9378H42.3511C41.488 55.9378 40.7882 55.2381 40.7882 54.3749V51.2493C40.7882 50.3861 41.488 49.6863 42.3511 49.6863H54.1299C54.993 49.6863 55.6928 50.3861 55.6928 51.2493V54.3749C55.6928 55.2381 54.993 55.9378 54.1299 55.9378Z" fill="#B5DBFF"/>
<path d="M75.4503 55.9378H60.7756C59.9124 55.9378 59.2126 55.2381 59.2126 54.3749V51.2493C59.2126 50.3861 59.9124 49.6863 60.7756 49.6863H75.4503C76.3135 49.6863 77.0132 50.3861 77.0132 51.2493V54.3749C77.013 55.2381 76.3135 55.9378 75.4503 55.9378Z" fill="#B5DBFF"/>
<path d="M69.5608 65.3536H75.4503C76.3135 65.3536 77.0132 64.6539 77.0132 63.7907V60.665C77.0132 59.8019 76.3135 59.1021 75.4503 59.1021H69.5608C68.6977 59.1021 67.9979 59.8019 67.9979 60.665V63.7907C67.9979 64.6539 68.6977 65.3536 69.5608 65.3536Z" fill="#B5DBFF"/>
<path d="M42.3501 65.3536H62.9141C63.7773 65.3536 64.477 64.6539 64.477 63.7907V60.665C64.477 59.8019 63.7773 59.1021 62.9141 59.1021H42.3501C41.487 59.1021 40.7872 59.8019 40.7872 60.665V63.7907C40.7874 64.6539 41.4871 65.3536 42.3501 65.3536Z" fill="#B5DBFF"/>
<path d="M54.129 74.7694H42.3503C41.4871 74.7694 40.7874 74.0696 40.7874 73.2064V70.0808C40.7874 69.2176 41.4871 68.5179 42.3503 68.5179H54.129C54.9922 68.5179 55.6919 69.2176 55.6919 70.0808V73.2064C55.6919 74.0696 54.9922 74.7694 54.129 74.7694Z" fill="#B5DBFF"/>
<path d="M75.4503 74.7694H60.7756C59.9124 74.7694 59.2126 74.0696 59.2126 73.2064V70.0808C59.2126 69.2176 59.9124 68.5179 60.7756 68.5179H75.4503C76.3135 68.5179 77.0132 69.2176 77.0132 70.0808V73.2064C77.013 74.0696 76.3135 74.7694 75.4503 74.7694Z" fill="#B5DBFF"/>
<path d="M13.9017 90.4299H12.6931C11.9999 90.4299 11.4379 89.868 11.4379 89.1747V87.9661C11.4379 87.2728 11.9999 86.7109 12.6931 86.7109H13.9017C14.595 86.7109 15.1569 87.2728 15.1569 87.9661V89.1747C15.1567 89.868 14.5948 90.4299 13.9017 90.4299Z" fill="url(#paint4_linear)"/>
</g>
<path d="M76.3471 38.5428H13.6529C12.1877 38.5428 11 39.7305 11 41.1956V83.6559C11 85.1211 12.1877 86.3088 13.6529 86.3088H76.3471C77.8122 86.3088 79 85.1211 79 83.6559V41.1956C79 39.7305 77.8122 38.5428 76.3471 38.5428Z" fill="#FFF5F5"/>
<path d="M76.3471 38.5428H45.1551V86.3089H76.3471C77.8122 86.3089 79 85.1212 79 83.6561V41.1956C79 39.7305 77.8124 38.5428 76.3471 38.5428Z" fill="#F4F1F1"/>
<path d="M45.6547 48.1426H44.6671C40.1791 48.1426 36.5408 44.5044 36.5408 40.0163V29.9913C36.5408 28.7209 37.5706 27.6911 38.841 27.6911H51.4806C52.751 27.6911 53.7808 28.7209 53.7808 29.9913V40.0163C53.781 44.5044 50.1426 48.1426 45.6547 48.1426Z" fill="#FFDD54"/>
<path d="M69.3005 55.9823H52.3157C51.1478 55.9823 50.2011 55.0355 50.2011 53.8677C50.2011 52.6998 51.1479 51.7531 52.3157 51.7531H69.3004C70.4683 51.7531 71.415 52.6998 71.415 53.8677C71.415 55.0355 70.4683 55.9823 69.3005 55.9823Z" fill="#003140"/>
<path d="M69.3005 64.7851H52.3157C51.1478 64.7851 50.2011 63.8383 50.2011 62.6705C50.2011 61.5025 51.1479 60.5558 52.3157 60.5558H69.3004C70.4683 60.5558 71.415 61.5026 71.415 62.6705C71.4151 63.8383 70.4683 64.7851 69.3005 64.7851Z" fill="#003140"/>
<path d="M69.3005 73.0989H52.3157C51.1478 73.0989 50.2011 72.1521 50.2011 70.9843C50.2011 69.8163 51.1479 68.8697 52.3157 68.8697H69.3004C70.4683 68.8697 71.415 69.8165 71.415 70.9843C71.4151 72.1521 70.4683 73.0989 69.3005 73.0989Z" fill="#003140"/>
<path d="M38.3781 58.6101H34.0241C33.5191 58.6101 33.1098 58.2008 33.1098 57.6957V53.3417C33.1098 52.8367 32.7004 52.4274 32.1954 52.4274H26.3926C25.8876 52.4274 25.4782 52.8367 25.4782 53.3417V57.6957C25.4782 58.2008 25.0689 58.6101 24.5639 58.6101H20.21C19.705 58.6101 19.2956 59.0195 19.2956 59.5245V65.3273C19.2956 65.8323 19.705 66.2416 20.21 66.2416H24.564C25.069 66.2416 25.4784 66.651 25.4784 67.156V71.51C25.4784 72.015 25.8877 72.4244 26.3927 72.4244H32.1955C32.7005 72.4244 33.1099 72.015 33.1099 71.51V67.156C33.1099 66.651 33.5192 66.2416 34.0243 66.2416H38.3783C38.8833 66.2416 39.2926 65.8323 39.2926 65.3273V59.5245C39.2925 59.0195 38.8832 58.6101 38.3781 58.6101Z" fill="#FF4A4A"/>
<path d="M51.4807 27.6912H45.1551V48.1427H45.6547C50.1426 48.1427 53.781 44.5045 53.781 40.0164V29.9913C53.781 28.7211 52.7511 27.6912 51.4807 27.6912Z" fill="#FFD321"/>
<path d="M43.0462 27.7042V39.0472C43.0462 40.2151 43.993 41.1618 45.1608 41.1618C46.3288 41.1618 47.2754 40.215 47.2754 39.0472V27.7042C47.2754 27.6998 47.2748 27.6956 47.2748 27.6912H43.0467C43.0469 27.6956 43.0462 27.6997 43.0462 27.7042Z" fill="#FFD321"/>
<path d="M45.1551 27.6912V41.1615C45.1571 41.1615 45.1589 41.1618 45.1609 41.1618C46.3289 41.1618 47.2756 40.215 47.2756 39.0472V27.7042C47.2756 27.6998 47.2749 27.6956 47.2749 27.6912H45.1551Z" fill="#FFB454"/>
<defs>
<linearGradient id="paint0_linear" x1="28.7875" y1="45.0153" x2="85.0661" y2="101.294" gradientUnits="userSpaceOnUse">
<stop stop-color="#0B799D"/>
<stop offset="1" stop-color="#07485E"/>
</linearGradient>
<linearGradient id="paint1_linear" x1="74.6524" y1="90.8801" x2="8.13098" y2="24.3589" gradientUnits="userSpaceOnUse">
<stop stop-color="#0B799D"/>
<stop offset="1" stop-color="#07485E"/>
</linearGradient>
<linearGradient id="paint2_linear" x1="27.6676" y1="43.8956" x2="64.3612" y2="80.5891" gradientUnits="userSpaceOnUse">
<stop stop-color="#EDF5FF"/>
<stop offset="1" stop-color="#D5E8FE"/>
</linearGradient>
<linearGradient id="paint3_linear" x1="12.7808" y1="49.2741" x2="41.7386" y2="78.232" gradientUnits="userSpaceOnUse">
<stop stop-color="#B9DD39"/>
<stop offset="1" stop-color="#0B799D"/>
</linearGradient>
<linearGradient id="paint4_linear" x1="12.3944" y1="87.6675" x2="16.4215" y2="91.6946" gradientUnits="userSpaceOnUse">
<stop stop-color="#B9DD39"/>
<stop offset="1" stop-color="#0B799D"/>
</linearGradient>
<clipPath id="clip0">
<rect width="92" height="92" fill="white"/>
</clipPath>
</defs>
</svg>
