<svg width="124" height="54" viewBox="0 0 124 54" fill="none" xmlns="http://www.w3.org/2000/svg">
<path d="M118.496 0.243317H5.50414C2.4642 0.243317 0 2.70775 0 5.74745V48.2216C0 51.2613 2.4642 53.7257 5.50414 53.7257H118.496C121.536 53.7257 124 51.2615 124 48.2216V5.74745C124 2.70775 121.536 0.243317 118.496 0.243317Z" fill="url(#paint0_linear)"/>
<path d="M112.991 6.87418H11.0085C8.51418 6.87418 6.49225 8.89611 6.49225 11.3905V42.5784C6.49225 45.0728 8.51418 47.0947 11.0085 47.0947H112.991C115.486 47.0947 117.508 45.0728 117.508 42.5784V11.3905C117.508 8.89611 115.486 6.87418 112.991 6.87418Z" fill="url(#paint1_linear)"/>
<path d="M58.962 47.0954H25.685L14.8238 36.2344C14.0577 35.7645 13.686 35.0302 13.686 34.0756C13.686 33.3851 13.95 32.8018 14.3215 32.3751L16.0422 30.1694L11.6407 25.6519C10.7034 25.2544 10.497 24.2881 10.497 23.0751C10.497 21.6939 11.4753 20.3936 13.1759 20.3936C13.3353 20.3936 13.6023 20.3936 13.9738 20.5531L19.7972 22.3608L19.5302 16.6971C19.5854 14.9417 20.671 14.3898 22.1566 14.3898C23.2738 14.3898 24.2719 14.5933 24.7217 15.5597L30.0895 20.7417C30.0895 20.7417 30.9285 20.3936 31.1926 20.3936C32.15 20.3936 32.9278 20.7451 33.4095 21.5431L42.1466 30.2802L58.962 47.0954Z" fill="url(#paint2_linear)"/>
<path d="M85.559 47.0954H52.2821L41.4209 36.2342C40.6547 35.7642 40.283 35.0299 40.283 34.0754C40.283 33.3849 40.547 32.8016 40.9185 32.3749L42.6392 30.1691L38.2377 25.6517C37.3004 25.2541 37.094 24.2879 37.094 23.0749C37.094 21.6936 38.0724 20.3933 39.7726 20.3933C39.9321 20.3933 40.1991 20.3933 40.5706 20.5528L46.394 22.3605L46.127 16.6969C46.1822 14.9415 47.2678 14.1464 48.7536 14.1464C49.8709 14.1464 50.866 14.5933 51.3187 15.5595L56.4431 20.4981L56.9916 20.3094C57.2586 20.2049 57.5255 20.1499 57.7896 20.1499C58.7471 20.1499 59.5249 20.7449 60.0065 21.5429L85.559 47.0954Z" fill="url(#paint3_linear)"/>
<path d="M112.153 47.0954H78.8793L68.0181 36.2342C67.252 35.7642 66.634 35.0299 66.634 34.0754C66.634 33.3849 66.9009 32.8016 67.2724 32.3749L68.7437 30.2798L68.9931 29.9258L64.8321 25.6517C63.8977 25.2541 63.445 24.2879 63.445 23.0749C63.445 21.6936 64.6694 20.1499 66.3699 20.1499C66.5294 20.1499 66.7935 20.1499 67.1679 20.3094L72.7479 22.1172L72.4809 16.6967C72.5361 14.9412 73.8622 14.1461 75.3507 14.1461C76.4679 14.1461 77.463 14.593 77.9158 15.5593L83.0401 20.4979L83.5884 20.3092C83.8554 20.2046 84.1194 20.1497 84.3864 20.1497C85.3439 20.1497 86.1187 20.7447 86.6033 21.5426L95.3404 30.2798L112.153 47.0954Z" fill="url(#paint4_linear)"/>
<path d="M117.507 25.8491V42.5774C117.507 45.073 115.485 47.0954 112.992 47.0954H105.474L94.6125 36.2342C93.8493 35.7642 93.2312 35.0299 93.2312 34.0754C93.2312 33.3849 93.4982 32.8016 93.8697 32.3749L95.3409 30.2798L95.5906 29.9258L91.4296 25.6517C90.4952 25.2541 90.0427 24.2879 90.0427 23.0749C90.0427 21.6936 91.2672 20.1499 92.9677 20.1499C93.1272 20.1499 93.3912 20.1499 93.7627 20.3094L99.3456 22.1172L99.0787 16.6967C99.131 14.9412 100.46 14.1461 101.948 14.1461C103.066 14.1461 104.061 14.593 104.514 15.5593L109.635 20.4979L110.186 20.3092C110.453 20.2046 110.717 20.1497 110.984 20.1497C111.942 20.1497 112.717 20.7447 113.201 21.5426L117.507 25.8491Z" fill="url(#paint5_linear)"/>
<path d="M30.4493 32.4286C30.715 32.7474 30.8743 33.3854 30.8743 33.9699C30.8743 35.6706 29.1736 36.8399 27.6323 36.8399C27.0478 36.8399 26.1976 36.7336 25.6128 35.8301L22.1581 30.5151L18.6503 35.8831C18.1721 36.6804 17.5343 36.8399 16.7901 36.8399C15.5143 36.8399 13.4418 35.8301 13.4418 34.0761C13.4418 33.3854 13.7076 32.8006 14.0796 32.3754L17.5873 27.3794L12.0601 25.7849C10.8376 25.5191 10.2529 24.4561 10.2529 23.0744C10.2529 21.6924 11.4753 20.1511 13.1761 20.1511C13.3356 20.1511 13.6013 20.1512 13.9733 20.3106L19.5541 22.1176L19.2881 16.6967C19.3413 14.9429 20.6701 14.1457 22.1581 14.1457C23.6463 14.1457 24.9218 14.9429 24.9751 16.6967L24.7623 22.2241L30.396 20.3106C30.6618 20.2044 30.9275 20.1511 31.1933 20.1511C32.841 20.1511 33.957 21.9051 33.957 23.4464C33.957 24.5094 33.4255 25.5191 32.15 25.7849L26.7288 27.0604L30.4493 32.4286Z" fill="url(#paint6_linear)"/>
<path d="M57.0461 32.4286C57.3118 32.7474 57.4711 33.3854 57.4711 33.9699C57.4711 35.6706 55.7703 36.8399 54.2291 36.8399C53.6446 36.8399 52.7943 36.7336 52.2096 35.8301L48.7549 30.5151L45.2471 35.8831C44.7689 36.6804 44.1311 36.8399 43.3869 36.8399C42.1111 36.8399 40.0386 35.8301 40.0386 34.0761C40.0386 33.3854 40.3044 32.8006 40.6764 32.3754L44.1841 27.3794L38.6569 25.7849C37.4344 25.5191 36.8496 24.4561 36.8496 23.0744C36.8496 21.6924 38.0721 20.1511 39.7729 20.1511C39.9324 20.1511 40.1981 20.1512 40.5701 20.3106L46.1509 22.1176L45.8849 16.6967C45.9381 14.9429 47.2669 14.1457 48.7549 14.1457C50.2431 14.1457 51.5186 14.9429 51.5718 16.6967L51.3591 22.2241L56.9928 20.3106C57.2586 20.2044 57.5243 20.1511 57.7901 20.1511C59.4378 20.1511 60.5538 21.9051 60.5538 23.4464C60.5538 24.5094 60.0223 25.5191 58.7468 25.7849L53.3256 27.0604L57.0461 32.4286Z" fill="url(#paint7_linear)"/>
<path d="M83.6429 32.4286C83.9086 32.7474 84.0679 33.3854 84.0679 33.9699C84.0679 35.6706 82.3671 36.8399 80.8259 36.8399C80.2414 36.8399 79.3911 36.7336 78.8064 35.8301L75.3516 30.5151L71.8439 35.8831C71.3656 36.6804 70.7279 36.8399 69.9837 36.8399C68.7079 36.8399 66.6354 35.8301 66.6354 34.0761C66.6354 33.3854 66.9012 32.8006 67.2732 32.3754L70.7809 27.3794L65.2537 25.7849C64.0312 25.5191 63.4464 24.4561 63.4464 23.0744C63.4464 21.6924 64.6689 20.1511 66.3697 20.1511C66.5292 20.1511 66.7949 20.1512 67.1669 20.3106L72.7476 22.1176L72.4816 16.6967C72.5349 14.9429 73.8636 14.1457 75.3516 14.1457C76.8399 14.1457 78.1154 14.9429 78.1686 16.6967L77.9559 22.2241L83.5896 20.3106C83.8554 20.2044 84.1211 20.1511 84.3869 20.1511C86.0346 20.1511 87.1506 21.9051 87.1506 23.4464C87.1506 24.5094 86.6191 25.5191 85.3436 25.7849L79.9224 27.0604L83.6429 32.4286Z" fill="url(#paint8_linear)"/>
<path d="M110.24 32.4286C110.505 32.7474 110.665 33.3854 110.665 33.9699C110.665 35.6706 108.964 36.8399 107.423 36.8399C106.838 36.8399 105.988 36.7336 105.403 35.8301L101.948 30.5151L98.4407 35.8831C97.9624 36.6804 97.3247 36.8399 96.5805 36.8399C95.3047 36.8399 93.2322 35.8301 93.2322 34.0761C93.2322 33.3854 93.498 32.8006 93.87 32.3754L97.3777 27.3794L91.8505 25.7849C90.628 25.5191 90.0432 24.4561 90.0432 23.0744C90.0432 21.6924 91.2657 20.1511 92.9665 20.1511C93.126 20.1511 93.3917 20.1512 93.7637 20.3106L99.3444 22.1176L99.0784 16.6967C99.1317 14.9429 100.46 14.1457 101.948 14.1457C103.437 14.1457 104.712 14.9429 104.765 16.6967L104.553 22.2241L110.186 20.3106C110.452 20.2044 110.718 20.1511 110.984 20.1511C112.631 20.1511 113.747 21.9051 113.747 23.4464C113.747 24.5094 113.216 25.5191 111.94 25.7849L106.519 27.0604L110.24 32.4286Z" fill="url(#paint9_linear)"/>
<defs>
<linearGradient id="paint0_linear" x1="45.994" y1="-47.5969" x2="68.8489" y2="58.8973" gradientUnits="userSpaceOnUse">
<stop stop-color="#FF9100"/>
<stop offset="1" stop-color="#E63950"/>
</linearGradient>
<linearGradient id="paint1_linear" x1="62" y1="11.0355" x2="62" y2="53.4162" gradientUnits="userSpaceOnUse">
<stop stop-color="#FDBF00"/>
<stop offset="1" stop-color="#FF9100"/>
</linearGradient>
<linearGradient id="paint2_linear" x1="34.5697" y1="37.001" x2="-27.6107" y2="-1.82311" gradientUnits="userSpaceOnUse">
<stop stop-color="#E63950" stop-opacity="0"/>
<stop offset="0.0467" stop-color="#E4354B" stop-opacity="0.047"/>
<stop offset="0.4669" stop-color="#D31822" stop-opacity="0.467"/>
<stop offset="0.7991" stop-color="#C90709" stop-opacity="0.799"/>
<stop offset="1" stop-color="#C50000"/>
</linearGradient>
<linearGradient id="paint3_linear" x1="59.5368" y1="35.9417" x2="-2.64364" y2="-2.88268" gradientUnits="userSpaceOnUse">
<stop stop-color="#E63950" stop-opacity="0"/>
<stop offset="0.0467" stop-color="#E4354B" stop-opacity="0.047"/>
<stop offset="0.4669" stop-color="#D31822" stop-opacity="0.467"/>
<stop offset="0.7991" stop-color="#C90709" stop-opacity="0.799"/>
<stop offset="1" stop-color="#C50000"/>
</linearGradient>
<linearGradient id="paint4_linear" x1="87.0045" y1="36.4854" x2="24.6164" y2="-2.46862" gradientUnits="userSpaceOnUse">
<stop stop-color="#E63950" stop-opacity="0"/>
<stop offset="0.0467" stop-color="#E4354B" stop-opacity="0.047"/>
<stop offset="0.4669" stop-color="#D31822" stop-opacity="0.467"/>
<stop offset="0.7991" stop-color="#C90709" stop-opacity="0.799"/>
<stop offset="1" stop-color="#C50000"/>
</linearGradient>
<linearGradient id="paint5_linear" x1="107.427" y1="32.6307" x2="67.6425" y2="7.79009" gradientUnits="userSpaceOnUse">
<stop stop-color="#E63950" stop-opacity="0"/>
<stop offset="0.0467" stop-color="#E4354B" stop-opacity="0.047"/>
<stop offset="0.4669" stop-color="#D31822" stop-opacity="0.467"/>
<stop offset="0.7991" stop-color="#C90709" stop-opacity="0.799"/>
<stop offset="1" stop-color="#C50000"/>
</linearGradient>
<linearGradient id="paint6_linear" x1="15.7475" y1="20.5202" x2="27.661" y2="32.4337" gradientUnits="userSpaceOnUse">
<stop stop-color="#EDF5FF"/>
<stop offset="1" stop-color="#D5E8FE"/>
</linearGradient>
<linearGradient id="paint7_linear" x1="42.3443" y1="20.5202" x2="54.2578" y2="32.4337" gradientUnits="userSpaceOnUse">
<stop stop-color="#EDF5FF"/>
<stop offset="1" stop-color="#D5E8FE"/>
</linearGradient>
<linearGradient id="paint8_linear" x1="68.9411" y1="20.5202" x2="80.8546" y2="32.4337" gradientUnits="userSpaceOnUse">
<stop stop-color="#EDF5FF"/>
<stop offset="1" stop-color="#D5E8FE"/>
</linearGradient>
<linearGradient id="paint9_linear" x1="95.5379" y1="20.5202" x2="107.451" y2="32.4337" gradientUnits="userSpaceOnUse">
<stop stop-color="#EDF5FF"/>
<stop offset="1" stop-color="#D5E8FE"/>
</linearGradient>
</defs>
</svg>
