<svg width="36" height="36" viewBox="0 0 36 36" fill="none" xmlns="http://www.w3.org/2000/svg">
<g clip-path="url(#clip0)">
<path d="M31.5 36C29.019 36 27 33.981 27 31.5C27 29.019 29.019 27 31.5 27C33.981 27 36 29.019 36 31.5C36 33.981 33.981 36 31.5 36ZM31.5 29.25C30.2595 29.25 29.25 30.2595 29.25 31.5C29.25 32.7405 30.2595 33.75 31.5 33.75C32.7405 33.75 33.75 32.7405 33.75 31.5C33.75 30.2595 32.7405 29.25 31.5 29.25Z" fill="#A8C8D9"/>
<path d="M17.625 34.875C17.004 34.875 16.5 34.371 16.5 33.75V32.25C16.5 31.2165 17.3415 30.375 18.375 30.375H27.75C28.371 30.375 28.875 30.879 28.875 31.5C28.875 32.121 28.371 32.625 27.75 32.625H18.75V33.75C18.75 34.371 18.246 34.875 17.625 34.875Z" fill="#A8C8D9"/>
<path d="M20.625 34.875C20.004 34.875 19.5 34.371 19.5 33.75V31.5C19.5 30.879 20.004 30.375 20.625 30.375C21.246 30.375 21.75 30.879 21.75 31.5V33.75C21.75 34.371 21.246 34.875 20.625 34.875Z" fill="#A8C8D9"/>
<path d="M12.375 30H3.375C1.5135 30 0 28.485 0 26.625V13.875C0 12.015 1.5135 10.5 3.375 10.5H20.625C22.4865 10.5 24 12.015 24 13.875V25.875C24 26.496 23.496 27 22.875 27C22.254 27 21.75 26.496 21.75 25.875V13.875C21.75 13.2555 21.246 12.75 20.625 12.75H3.375C2.754 12.75 2.25 13.2555 2.25 13.875V26.625C2.25 27.2445 2.754 27.75 3.375 27.75H12.375C12.996 27.75 13.5 28.254 13.5 28.875C13.5 29.496 12.996 30 12.375 30Z" fill="#A8C8D9"/>
<path d="M18.375 12.75C17.754 12.75 17.25 12.246 17.25 11.625V7.5C17.25 4.605 14.895 2.25 12 2.25C9.105 2.25 6.75 4.605 6.75 7.5V11.625C6.75 12.246 6.246 12.75 5.625 12.75C5.004 12.75 4.5 12.246 4.5 11.625V7.5C4.5 3.3645 7.8645 0 12 0C16.1355 0 19.5 3.3645 19.5 7.5V11.625C19.5 12.246 18.996 12.75 18.375 12.75Z" fill="#A8C8D9"/>
</g>
<defs>
<clipPath id="clip0">
<rect width="36" height="36" fill="white"/>
</clipPath>
</defs>
</svg>
