<svg width="135" height="135" viewBox="0 0 135 135" fill="none" xmlns="http://www.w3.org/2000/svg">
<g clip-path="url(#clip0)">
<g filter="url(#filter0_ii)">
<path d="M118.057 17.9396C103.198 17.9396 88.792 12.8658 77.2852 3.44296C71.5772 -1.17785 63.4228 -1.17785 57.7148 3.44296C46.2081 12.8658 31.802 17.9396 16.943 17.9396C12.3222 17.9396 8.51678 21.745 8.51678 26.3658V48.9262C8.51678 77.8289 21.5638 105.191 43.943 123.403L50.8289 129.02C60.5235 136.903 74.3859 136.903 84.1711 129.02L91.0571 123.403C113.436 105.191 126.483 77.8289 126.483 48.9262C126.483 40.3188 126.483 32.1644 126.483 26.3658C126.483 21.745 122.768 17.9396 118.057 17.9396Z" fill="url(#paint0_linear)"/>
</g>
<g filter="url(#filter1_ii)">
<path d="M67.5 127.57C65.8691 127.57 64.2383 127.027 63.0604 126.03L49.8322 115.248C40.1376 107.366 32.255 97.3087 26.9094 85.9832C21.5638 74.7483 18.755 62.245 18.755 49.7416V31.8926C18.755 29.7181 20.4765 27.906 22.651 27.8154C37.4195 27 51.6443 21.5638 63.0604 12.2316C64.3289 11.2349 65.8691 10.6913 67.5 10.6913C69.1309 10.6913 70.7617 11.2349 71.9396 12.2316C83.4463 21.5638 97.6712 27 112.349 27.8154C114.523 27.906 116.245 29.8087 116.245 31.8926V49.7416C116.245 62.245 113.436 74.7483 108.091 85.9832C102.745 97.2181 94.7718 107.366 85.1678 115.248L71.9396 125.94C70.7617 127.027 69.1309 127.57 67.5 127.57Z" fill="url(#paint1_linear)"/>
</g>
<path d="M67.5 122.678C66.0504 122.678 64.6007 122.134 63.4228 121.228L51.2819 111.352C42.4027 104.195 35.1544 94.8624 30.2618 84.6242C25.3691 74.2953 22.7416 62.8792 22.7416 51.4631V34.9732C22.7416 32.9799 24.3725 31.349 26.3658 31.1678C39.8658 30.5336 52.9128 25.4597 63.4228 16.943C64.6007 16.0369 66.0504 15.4933 67.5 15.4933C68.9497 15.4933 70.3993 16.0369 71.5772 16.943C82.0873 25.4597 95.1342 30.5336 108.634 31.1678C110.628 31.2584 112.258 32.9799 112.258 34.9732V51.3725C112.258 62.7886 109.631 74.2953 104.738 84.5336C99.8456 94.8624 92.5973 104.104 83.7181 111.262L71.5772 121.228C70.3993 122.134 68.9497 122.678 67.5 122.678Z" fill="url(#paint2_linear)"/>
<path d="M126.483 26.3658C126.483 21.745 122.678 17.9396 118.057 17.9396C103.198 17.9396 88.792 12.8658 77.2852 3.44295C74.4765 1.17785 70.943 0 67.5 0V135C73.3893 135 79.2785 133.007 84.1711 129.111L91.057 123.493C113.436 105.282 126.483 77.9195 126.483 49.0168C126.483 40.2282 126.483 32.1644 126.483 26.3658Z" fill="url(#paint3_linear)"/>
<g filter="url(#filter2_d)">
<path d="M38.6879 66.6845C35.245 66.6845 32.4362 69.4933 32.4362 72.9362C32.4362 74.5671 33.0705 76.198 34.2483 77.3758L55.3591 98.4865C60.1611 103.289 66.5034 105.916 73.2987 105.916C85.0772 105.916 94.5906 96.4027 94.5906 84.6241V47.0235C94.5906 43.3993 91.6913 40.5 88.0671 40.5C86.8893 40.5 85.7114 40.7718 84.8054 41.406V40.5C84.8054 36.8758 81.906 33.9765 78.2819 33.9765C77.104 33.9765 75.9262 34.2483 75.0201 34.8825V33.9765C75.0201 30.3523 72.0302 27.453 68.4967 27.453C64.8725 27.453 61.9732 30.3523 61.9732 33.9765V34.8825C60.9765 34.3389 59.8893 33.9765 58.7114 33.9765C55.0873 33.9765 52.1879 36.8758 52.1879 40.5V72.2114L38.6879 66.6845ZM91.3289 84.6241C91.3289 94.5 83.2651 102.564 73.2987 102.564C67.4094 102.564 61.8826 100.299 57.7148 96.1309L36.5134 75.0201C35.9698 74.4765 35.6074 73.7517 35.6074 72.9362C35.6074 71.3054 36.9664 69.9463 38.5973 69.9463C39.594 69.9463 40.5906 70.2181 41.4967 70.6711L52.8222 76.3792C53.3658 76.651 53.9094 76.651 54.453 76.2886C54.906 76.0168 55.2685 75.4731 55.2685 74.9295V40.5C55.2685 38.6879 56.7181 37.2382 58.5302 37.2382C60.3423 37.2382 61.792 38.6879 61.792 40.5V61.7919C61.792 62.698 62.5168 63.4228 63.4228 63.4228C64.3289 63.4228 65.0537 62.698 65.0537 61.7919V33.9765C65.0537 32.1644 66.5034 30.7147 68.3154 30.7147C70.1275 30.7147 71.5772 32.1644 71.5772 33.9765V61.7919C71.5772 62.698 72.302 63.4228 73.2081 63.4228C74.1141 63.4228 74.8389 62.698 74.8389 61.7919V40.5C74.8389 38.6879 76.2886 37.2382 78.1007 37.2382C79.9128 37.2382 81.3624 38.6879 81.3624 40.5V61.7919C81.3624 62.698 82.0873 63.4228 82.9933 63.4228C83.8993 63.4228 84.6242 62.698 84.6242 61.7919V47.0235C84.6242 45.2114 86.0738 43.7617 87.8859 43.7617C89.698 43.7617 91.1477 45.2114 91.1477 47.0235L91.3289 84.6241Z" fill="white"/>
<path d="M65.5067 34.2483H67.8624V96.7651L65.5067 36.8758V34.2483Z" fill="white"/>
<path d="M70.2181 31.4396H67.8624V34.0671H70.2181V31.4396Z" fill="white"/>
<path d="M71.396 36.4228H69.0403V39.0503H71.396V36.4228Z" fill="white"/>
<path d="M70.2181 39.2315H67.8624V41.859H70.2181V39.2315Z" fill="white"/>
<path d="M61.8826 39.3221H59.5268V41.9497H61.8826V39.3221Z" fill="white"/>
<path d="M77.1946 39.3221H74.8389V41.9497H77.1946V39.3221Z" fill="white"/>
<path d="M79.5503 39.3221H77.1946V41.9497H79.5503V39.3221Z" fill="white"/>
<path d="M60.2517 41.9496H57.896V44.5772H60.2517V41.9496Z" fill="white"/>
<path d="M71.7584 41.9496H69.4027V44.5772H71.7584V41.9496Z" fill="white"/>
<path d="M81.6342 41.9496H79.2785V44.5772H81.6342V41.9496Z" fill="white"/>
<path d="M61.6107 44.5771H59.255V47.1141H61.6107V44.5771Z" fill="white"/>
<path d="M67.8624 44.5771H65.5067V47.1141H67.8624V44.5771Z" fill="white"/>
<path d="M77.1946 44.5771H74.8389V47.1141H77.1946V44.5771Z" fill="white"/>
<path d="M81.6342 44.5771H79.2785V47.1141H81.6342V44.5771Z" fill="white"/>
<path d="M59.8893 47.1141H57.5336V49.7416H59.8893V47.1141Z" fill="white"/>
<path d="M70.2181 47.1141H67.8624V49.7416H70.2181V47.1141Z" fill="white"/>
<path d="M77.1946 47.1141H74.8389V49.7416H77.1946V47.1141Z" fill="white"/>
<path d="M79.5503 47.1141H77.1946V49.7416H79.5503V47.1141Z" fill="white"/>
<path d="M58.4396 49.651H56.0839V52.2785H58.4396V49.651Z" fill="white"/>
<path d="M60.7953 49.651H58.4396V52.2785H60.7953V49.651Z" fill="white"/>
<path d="M57.6242 44.6678H55.2685V47.2953H57.6242V44.6678Z" fill="white"/>
<path d="M67.8624 49.651H65.5067V52.2785H67.8624V49.651Z" fill="white"/>
<path d="M70.2181 49.651H67.8624V52.2785H70.2181V49.651Z" fill="white"/>
<path d="M71.7584 53.0939H69.4027V55.7215H71.7584V53.0939Z" fill="white"/>
<path d="M77.1946 49.651H74.8389V52.2785H77.1946V49.651Z" fill="white"/>
<path d="M87.0705 47.3859H84.7148V50.0134H87.0705V47.3859Z" fill="white"/>
<path d="M88.9732 49.651H86.6174V52.2785H88.9732V49.651Z" fill="white"/>
<path d="M91.2383 47.2047H88.8826V49.8322H91.2383V47.2047Z" fill="white"/>
<path d="M60.7953 52.2785H58.4396V54.906H60.7953V52.2785Z" fill="white"/>
<path d="M61.7013 52.2785H60.7047V54.906H61.7013V52.2785Z" fill="white"/>
<path d="M67.8624 52.2785H65.5067V54.906H67.8624V52.2785Z" fill="white"/>
<path d="M77.1946 52.2785H74.8389V54.906H77.1946V52.2785Z" fill="white"/>
<path d="M79.5503 52.2785H77.1946V54.906H79.5503V52.2785Z" fill="white"/>
<path d="M81.6342 52.2785H79.2785V54.906H81.6342V52.2785Z" fill="white"/>
<path d="M91.2383 52.2785H88.8826V54.906H91.2383V52.2785Z" fill="white"/>
<path d="M57.6242 57.4429H55.2685V60.0704H57.6242V57.4429Z" fill="white"/>
<path d="M58.4396 54.8154H56.0839V57.4429H58.4396V54.8154Z" fill="white"/>
<path d="M61.8826 54.8154H59.5268V57.4429H61.8826V54.8154Z" fill="white"/>
<path d="M77.1946 54.8154H74.8389V57.4429H77.1946V54.8154Z" fill="white"/>
<path d="M79.5503 54.8154H77.1946V57.4429H79.5503V54.8154Z" fill="white"/>
<path d="M81.6342 54.8154H79.2785V57.4429H81.6342V54.8154Z" fill="white"/>
<path d="M88.9732 54.8154H86.6174V57.4429H88.9732V54.8154Z" fill="white"/>
<path d="M67.8624 57.4429H65.5067V60.0704H67.8624V57.4429Z" fill="white"/>
<path d="M70.2181 57.4429H67.8624V60.0704H70.2181V57.4429Z" fill="white"/>
<path d="M71.7584 55.4496H69.4027V57.9866H71.7584V55.4496Z" fill="white"/>
<path d="M79.5503 57.4429H77.1946V60.0704H79.5503V57.4429Z" fill="white"/>
<path d="M88.9732 57.4429H86.6174V60.0704H88.9732V57.4429Z" fill="white"/>
<path d="M91.2383 57.4429H88.8826V60.0704H91.2383V57.4429Z" fill="white"/>
<path d="M57.6242 62.1544H55.2685V64.7819H57.6242V62.1544Z" fill="white"/>
<path d="M58.4396 59.9799H56.0839V62.6074H58.4396V59.9799Z" fill="white"/>
<path d="M60.7953 59.9799H58.4396V62.6074H60.7953V59.9799Z" fill="white"/>
<path d="M70.2181 59.9799H67.8624V62.6074H70.2181V59.9799Z" fill="white"/>
<path d="M72.5738 63.2416H70.2181V65.8691H72.5738V63.2416Z" fill="white"/>
<path d="M88.9732 59.9799H86.6174V62.6074H88.9732V59.9799Z" fill="white"/>
<path d="M60.7953 62.6074H58.4396V65.2349H60.7953V62.6074Z" fill="white"/>
<path d="M63.151 63.3322H60.7953V65.9597H63.151V63.3322Z" fill="white"/>
<path d="M67.8624 62.6074H65.5067V65.2349H67.8624V62.6074Z" fill="white"/>
<path d="M74.8389 63.7852H72.4832V66.4127H74.8389V63.7852Z" fill="white"/>
<path d="M77.1946 62.6074H74.8389V65.2349H77.1946V62.6074Z" fill="white"/>
<path d="M79.5503 62.6074H77.1946V65.2349H79.5503V62.6074Z" fill="white"/>
<path d="M81.906 62.6074H79.5503V65.2349H81.906V62.6074Z" fill="white"/>
<path d="M91.2383 62.6074H88.8826V65.2349H91.2383V62.6074Z" fill="white"/>
<path d="M58.4396 65.1443H56.0839V67.7718H58.4396V65.1443Z" fill="white"/>
<path d="M63.151 65.1443H60.7953V67.7718H63.151V65.1443Z" fill="white"/>
<path d="M65.5067 65.1443H63.151V67.7718H65.5067V65.1443Z" fill="white"/>
<path d="M67.8624 65.1443H65.5067V67.7718H67.8624V65.1443Z" fill="white"/>
<path d="M79.5503 65.1443H77.1946V67.7718H79.5503V65.1443Z" fill="white"/>
<path d="M74.8389 94.8624H72.4832V97.4899H74.8389V94.8624Z" fill="white"/>
<path d="M60.7953 67.7718H58.4396V70.3993H60.7953V67.7718Z" fill="white"/>
<path d="M63.5134 97.0369H61.1577V99.6644H63.5134V97.0369Z" fill="white"/>
<path d="M72.5738 67.7718H70.2181V70.3993H72.5738V67.7718Z" fill="white"/>
<path d="M77.1946 67.7718H74.8389V70.3993H77.1946V67.7718Z" fill="white"/>
<path d="M88.9732 67.7718H86.6174V70.3993H88.9732V67.7718Z" fill="white"/>
<path d="M44.396 72.0302H42.0403V74.6577H44.396V72.0302Z" fill="white"/>
<path d="M58.4396 70.3087H56.0839V72.9362H58.4396V70.3087Z" fill="white"/>
<path d="M85.8926 94.8624H83.5369V97.4899H85.8926V94.8624Z" fill="white"/>
<path d="M70.2181 70.3087H67.8624V72.9362H70.2181V70.3087Z" fill="white"/>
<path d="M74.8389 70.3087H72.4832V72.9362H74.8389V70.3087Z" fill="white"/>
<path d="M77.1946 70.3087H74.8389V72.9362H77.1946V70.3087Z" fill="white"/>
<path d="M79.5503 70.3087H77.1946V72.9362H79.5503V70.3087Z" fill="white"/>
<path d="M81.906 70.3087H79.5503V72.9362H81.906V70.3087Z" fill="white"/>
<path d="M86.6175 65.1443V62.5168H84.2618V63.604C83.7181 63.4228 83.0839 63.6946 83.1745 64.3289C83.2651 65.4161 83.3557 66.5034 83.4463 67.5906H81.9061V72.755H86.6175V70.1275H85.1678C85.1678 68.406 85.0772 66.6846 84.896 65.0537H86.6175V65.1443Z" fill="white"/>
<path d="M88.9732 70.3087H86.6174V72.9362H88.9732V70.3087Z" fill="white"/>
<path d="M91.2383 70.4899V73.1174H88.8826V70.4899" fill="white"/>
<path d="M63.151 72.8456H60.7953V75.4732H63.151V72.8456Z" fill="white"/>
<path d="M72.5738 72.8456H70.2181V75.4732H72.5738V72.8456Z" fill="white"/>
<path d="M81.906 72.8456H79.5503V75.4732H81.906V72.8456Z" fill="white"/>
<path d="M91.2383 72.8456H88.8826V75.4732H91.2383V72.8456Z" fill="white"/>
<path d="M63.151 75.4731H60.7953V78.1007H63.151V75.4731Z" fill="white"/>
<path d="M65.5067 75.4731H63.151V78.1007H65.5067V75.4731Z" fill="white"/>
<path d="M67.8624 75.4731H65.5067V78.1007H67.8624V75.4731Z" fill="white"/>
<path d="M70.2181 75.4731H67.8624V78.1007H70.2181V75.4731Z" fill="white"/>
<path d="M72.5738 75.4731H70.2181V78.1007H72.5738V75.4731Z" fill="white"/>
<path d="M74.8389 75.4731H72.4832V78.1007H74.8389V75.4731Z" fill="white"/>
<path d="M77.1946 75.4731H74.8389V78.1007H77.1946V75.4731Z" fill="white"/>
<path d="M81.906 75.4731H79.5503V78.1007H81.906V75.4731Z" fill="white"/>
<path d="M86.6175 75.4731H84.2617V78.1007H86.6175V75.4731Z" fill="white"/>
<path d="M91.2383 75.4731H88.8826V78.1007H91.2383V75.4731Z" fill="white"/>
<path d="M65.5067 78.0101H63.151V80.6376H65.5067V78.0101Z" fill="white"/>
<path d="M70.2181 78.0101H67.8624V80.6376H70.2181V78.0101Z" fill="white"/>
<path d="M74.8389 78.0101H72.4832V80.6376H74.8389V78.0101Z" fill="white"/>
<path d="M81.906 78.0101H79.5503V80.6376H81.906V78.0101Z" fill="white"/>
<path d="M91.2383 78.0101H88.8826V80.6376H91.2383V78.0101Z" fill="white"/>
<path d="M63.151 80.6376H60.7953V83.2651H63.151V80.6376Z" fill="white"/>
<path d="M65.5067 80.6376H63.151V83.2651H65.5067V80.6376Z" fill="white"/>
<path d="M72.5738 80.6376H70.2181V83.2651H72.5738V80.6376Z" fill="white"/>
<path d="M74.8389 80.6376H72.4832V83.2651H74.8389V80.6376Z" fill="white"/>
<path d="M81.906 80.6376H79.5503V83.2651H81.906V80.6376Z" fill="white"/>
<path d="M84.2617 80.6376H81.9061V83.2651H84.2617V80.6376Z" fill="white"/>
<path d="M86.6175 80.6376H84.2617V83.2651H86.6175V80.6376Z" fill="white"/>
<path d="M88.9732 80.6376H86.6174V83.2651H88.9732V80.6376Z" fill="white"/>
<path d="M91.2383 80.6376H88.8826V83.2651H91.2383V80.6376Z" fill="white"/>
<path d="M67.8624 83.2651H65.5067V85.8926H67.8624V83.2651Z" fill="white"/>
<path d="M74.8389 83.2651H72.4832V85.8926H74.8389V83.2651Z" fill="white"/>
<path d="M77.1946 83.2651H74.8389V85.8926H77.1946V83.2651Z" fill="white"/>
<path d="M79.5503 83.2651H77.1946V85.8926H79.5503V83.2651Z" fill="white"/>
<path d="M81.906 83.2651H79.5503V85.8926H81.906V83.2651Z" fill="white"/>
<path d="M72.5738 93.7751H70.2181V96.4027H72.5738V93.7751Z" fill="white"/>
<path d="M86.6175 83.2651H84.2617V85.8926H86.6175V83.2651Z" fill="white"/>
<path d="M88.9732 83.2651H86.6174V85.8926H88.9732V83.2651Z" fill="white"/>
<path d="M67.8624 85.802H65.5067V88.4295H67.8624V85.802Z" fill="white"/>
<path d="M79.5503 85.802H77.1946V88.4295H79.5503V85.802Z" fill="white"/>
<path d="M81.906 85.802H79.5503V88.4295H81.906V85.802Z" fill="white"/>
<path d="M79.9128 94.8624H77.5571V97.4899H79.9128V94.8624Z" fill="white"/>
<path d="M86.6175 85.802H84.2617V88.4295H86.6175V85.802Z" fill="white"/>
<path d="M65.5067 88.4295H63.151V91.057H65.5067V88.4295Z" fill="white"/>
<path d="M67.8624 88.4295H65.5067V91.057H67.8624V88.4295Z" fill="white"/>
<path d="M72.5738 88.4295H70.2181V91.057H72.5738V88.4295Z" fill="white"/>
<path d="M77.1946 88.4295H74.8389V91.057H77.1946V88.4295Z" fill="white"/>
<path d="M79.5503 88.4295H77.1946V91.057H79.5503V88.4295Z" fill="white"/>
<path d="M88.9732 88.4295H86.6174V91.057H88.9732V88.4295Z" fill="white"/>
<path d="M91.2383 86.5269H88.8826V89.1544H91.2383V86.5269Z" fill="white"/>
<path d="M63.151 90.9664H60.7953V93.5939H63.151V90.9664Z" fill="white"/>
<path d="M65.5067 90.9664H63.151V93.5939H65.5067V90.9664Z" fill="white"/>
<path d="M67.8624 90.9664H65.5067V93.5939H67.8624V90.9664Z" fill="white"/>
<path d="M70.2181 90.9664H67.8624V93.5939H70.2181V90.9664Z" fill="white"/>
<path d="M74.8389 90.9664H72.4832V93.5939H74.8389V90.9664Z" fill="white"/>
<path d="M77.1946 90.9664H74.8389V93.5939H77.1946V90.9664Z" fill="white"/>
<path d="M79.5503 90.9664H77.1946V93.5939H79.5503V90.9664Z" fill="white"/>
<path d="M84.2617 90.9664H81.9061V93.5939H84.2617V90.9664Z" fill="white"/>
<path d="M86.6175 90.9664H84.2617V93.5939H86.6175V90.9664Z" fill="white"/>
<path d="M50.557 76.7416V79.3691H48.2013V76.7416" fill="#13456C"/>
<path d="M55.2685 76.7416V79.3691H52.9128V76.7416" fill="#13456C"/>
<path d="M59.9799 76.7416V79.3691H57.6242V76.7416" fill="#13456C"/>
<path d="M48.292 79.3691H45.9362V81.9967H48.292V79.3691Z" fill="#13456C"/>
<path d="M57.7148 79.3691H55.3591V81.9967H57.7148V79.3691Z" fill="#13456C"/>
<path d="M48.292 81.906H45.9362V84.5335H48.292V81.906Z" fill="#13456C"/>
<path d="M50.6477 81.906H48.2919V84.5335H50.6477V81.906Z" fill="#13456C"/>
<path d="M53.0034 81.906H50.6477V84.5335H53.0034V81.906Z" fill="#13456C"/>
<path d="M55.3591 81.906H53.0034V84.5335H55.3591V81.906Z" fill="#13456C"/>
<path d="M57.7148 81.906H55.3591V84.5335H57.7148V81.906Z" fill="#13456C"/>
<path d="M59.9799 81.906H57.6242V84.5335H59.9799V81.906Z" fill="#13456C"/>
<path d="M62.3356 84.5335H59.9799V81.906H62.3356" fill="#13456C"/>
<path d="M50.6477 84.5336H48.2919V87.1611H50.6477V84.5336Z" fill="#13456C"/>
<path d="M55.3591 84.5336H53.0034V87.1611H55.3591V84.5336Z" fill="#13456C"/>
<path d="M59.9799 84.5336H57.6242V87.1611H59.9799V84.5336Z" fill="#13456C"/>
<path d="M59.5268 96.1309V93.5034H61.8826V96.1309" fill="#13456C"/>
<path d="M64.7819 97.9429V95.3154H67.1376V97.9429" fill="#13456C"/>
<path d="M55.2685 89.698V87.0704H57.6242V89.698" fill="#13456C"/>
<path d="M57.6242 89.698V87.0704H59.9799V89.698" fill="#13456C"/>
<path d="M45.9362 73.8423H43.5805V76.4698H45.9362V73.8423Z" fill="#13456C"/>
<path d="M45.9362 76.4698H43.5805V79.0973H45.9362V76.4698Z" fill="#13456C"/>
<path d="M45.9362 79.0067H43.5805V81.5436H45.9362V79.0067Z" fill="#13456C"/>
<path d="M70.2181 94.1376H67.8624V96.7651H70.2181V94.1376Z" fill="#13456C"/>
<path d="M70.2181 96.6745H67.8624V99.302H70.2181V96.6745Z" fill="#13456C"/>
<path d="M70.2181 99.2114H67.8624V101.839H70.2181V99.2114Z" fill="#13456C"/>
<path d="M81.906 92.2349H79.5503V94.8624H81.906V92.2349Z" fill="#13456C"/>
<path d="M81.906 94.8624H79.5503V97.4899H81.906V94.8624Z" fill="#13456C"/>
<path d="M81.906 97.3993H79.5503V100.027H81.906V97.3993Z" fill="#13456C"/>
<path d="M76.5604 94.8624H74.2047V97.4899H76.5604V94.8624Z" fill="#13456C"/>
<path d="M76.5604 97.3993H74.2047V100.027H76.5604V97.3993Z" fill="#13456C"/>
<path d="M76.5604 100.57H74.2047V103.198H76.5604V100.57Z" fill="#13456C"/>
<path d="M58.802 92.7785H56.4463V95.406H58.802V92.7785Z" fill="#13456C"/>
<path d="M54.906 90.2416H52.5503V92.8691H54.906V90.2416Z" fill="#13456C"/>
<path d="M64.3289 69.4933H61.9732V72.1208H64.3289V69.4933Z" fill="#13456C"/>
<path d="M66.6846 69.4933H64.3289V72.1208H66.6846V69.4933Z" fill="#13456C"/>
<path d="M69.0403 69.4933H66.6846V72.1208H69.0403V69.4933Z" fill="#13456C"/>
<path d="M39.6846 73.2986H37.3289V75.9262H39.6846V73.2986Z" fill="#13456C"/>
<path d="M42.0403 73.2986H39.6846V75.9262H42.0403V73.2986Z" fill="#13456C"/>
<path d="M44.396 73.2986H42.0403V75.9262H44.396V73.2986Z" fill="#13456C"/>
<path d="M42.4027 77.2852H40.047V79.9127H42.4027V77.2852Z" fill="#13456C"/>
<path d="M44.7584 77.2852H42.4027V79.9127H44.7584V77.2852Z" fill="#13456C"/>
<path d="M47.1141 77.2852H44.7584V79.9127H47.1141V77.2852Z" fill="#13456C"/>
<path d="M55.0872 73.2986H57.3523C57.3523 73.2986 57.443 73.2986 57.443 73.3892V75.8356C57.443 75.8356 57.443 75.9262 57.3523 75.9262H55.0872C55.0872 75.9262 54.9966 75.9262 54.9966 75.8356L55.0872 73.2986Z" fill="#13456C"/>
<path d="M57.896 73.2986H60.1611C60.1611 73.2986 60.2517 73.2986 60.2517 73.3892V75.8356C60.2517 75.8356 60.2517 75.9262 60.1611 75.9262H57.896C57.896 75.9262 57.8054 75.9262 57.2617 75.8356V73.3892C57.896 73.2986 57.896 73.2986 57.896 73.2986Z" fill="#13456C"/>
<path d="M60.2517 73.2986H62.5168C62.5168 73.2986 62.6074 73.2986 62.6074 73.3892V75.8356C62.6074 75.8356 62.6074 75.9262 62.5168 75.9262H60.2517C60.2517 75.9262 60.1611 75.9262 60.1611 75.8356L60.2517 73.2986Z" fill="#13456C"/>
<path d="M88.9732 44.5771H86.6174V47.1141H88.9732V44.5771Z" fill="#13456C"/>
<path d="M88.2483 92.7785H85.8926V95.406H88.2483V92.7785Z" fill="#3F5489"/>
<g filter="url(#filter3_i)">
<path d="M91.0571 77.104C90.7852 76.4698 89.9698 76.2886 89.6074 76.8322C89.698 76.3792 89.698 75.9262 89.7886 75.3825C89.8792 75.2919 90.0604 75.1107 90.0604 74.9295C90.0604 74.8389 90.0604 74.8389 90.0604 74.7483C90.0604 74.6577 90.151 74.5671 90.151 74.4765C90.151 74.3859 90.151 74.3859 90.151 74.3859C90.2416 73.4799 90.4228 72.6644 90.5134 71.7584C90.9664 72.0302 91.5101 71.9396 91.6913 71.3054C92.1443 69.0403 92.0537 66.6845 91.5101 64.4194C91.4195 64.1476 91.3289 64.057 91.1477 63.9664C91.1477 63.6946 90.9664 63.4228 90.6946 63.3322V63.2416C90.6946 63.151 90.6946 63.151 90.6946 63.0604C91.0571 63.0604 91.4195 62.8792 91.4195 62.5168C91.6913 62.4262 91.8725 62.1543 91.8725 61.7919C91.7819 57.9866 91.7819 54.2718 91.6913 50.4664V50.3758C91.7819 49.5604 91.8725 48.745 91.9631 47.8389C91.9631 47.1141 92.1443 46.208 91.7819 45.5738C91.6007 45.2114 91.2383 45.0302 90.9664 44.7584C90.9664 44.6678 90.9664 44.5772 90.9664 44.5772C90.9664 44.1242 90.604 43.8523 90.2416 43.8523C89.6074 42.9463 88.5201 42.4027 87.1611 42.5839C85.9832 42.7651 84.1711 43.8523 84.2617 45.302V45.3926C83.9899 45.4832 83.6275 45.755 83.4463 46.208C83.2651 46.7517 83.2651 47.2953 83.1745 47.7483C83.0839 48.5637 83.0839 49.4698 83.0839 50.2852C82.9933 53.6376 83.0839 56.8993 83.2651 60.2517C83.3557 60.7953 83.8993 61.1577 84.3524 61.0671C84.3524 61.2483 84.3524 61.5201 84.3524 61.7013C84.1711 61.9731 83.9899 62.3356 83.7181 62.6074C83.4463 61.7013 83.1745 60.7953 82.9027 59.7986V36.5134H72.2114C72.2114 35.4262 72.2114 34.3389 72.1208 33.1611C72.0302 32.5268 72.0302 31.8926 71.4866 31.5302C71.3054 31.4396 71.1242 31.349 70.943 31.349C70.5805 30.7148 69.8557 30.1711 69.0403 29.9899C68.4967 29.8087 68.0436 30.2617 68.0436 30.8054C67.953 30.8054 67.7718 30.8054 67.6812 30.896C67.047 30.4429 66.1409 30.3523 65.5067 30.8054C65.1443 30.7148 64.6913 30.7148 64.3289 30.896C63.6946 31.349 63.6946 32.255 63.604 32.8893C63.5134 33.7953 63.604 34.8825 64.0571 35.698V35.7886C64.1477 36.0604 64.2383 36.3322 64.3289 36.5134H54.7248V75.6543C54.453 75.6543 54.2718 75.745 54.0906 75.9262C53.9094 76.1074 53.7282 76.198 53.547 76.3792C53.547 75.9262 53.094 75.4731 52.5503 75.5637C52.0973 75.6544 51.7349 75.745 51.3725 75.9262C51.3725 75.745 51.2819 75.5637 51.1007 75.3825C50.7383 75.0201 50.3758 74.7483 49.9228 74.5671C46.5705 72.1208 42.9463 70.2181 39.0503 68.859C38.6879 68.7684 38.1443 69.0403 38.0537 69.4027C38.0537 69.5839 38.0537 69.7651 38.0537 69.9463C37.5101 69.7651 36.8758 69.5839 36.3322 69.4933C35.7886 69.4027 35.4262 69.7651 35.3356 70.3087C35.245 70.8523 35.3356 71.396 35.4262 71.849C34.9732 72.2114 34.7014 72.755 34.792 73.4799C34.792 74.3859 35.5168 75.1107 36.151 75.6543C36.3322 75.745 36.4228 75.9262 36.6946 76.0168C37.4195 77.6476 38.5067 79.0973 39.8658 80.2752C40.3188 80.6376 40.953 80.547 41.2248 80.0033C41.406 80.547 41.6779 81.1812 41.9497 81.7248C43.2181 83.8993 45.2114 85.349 47.3859 86.4362C47.8389 86.7986 48.292 87.2517 48.745 87.6141C49.3792 88.5201 50.0134 89.3356 50.6477 90.2416C50.9195 90.6946 51.5537 90.6946 51.8255 90.4228C52.4597 91.1476 53.094 91.7819 53.8188 92.4161L53.9094 92.5067C54.1812 92.8691 54.3624 93.1409 54.6342 93.5033C54.5436 93.7752 54.5436 94.047 54.8154 94.3188L54.906 94.4094V97.0369H57.7148C58.8926 98.1241 60.0705 99.1208 61.2483 100.027C63.3322 101.658 65.5973 102.926 68.3154 102.473C68.4967 102.473 68.5873 102.383 68.6779 102.201C68.9497 102.745 69.4027 103.289 69.8557 103.832C70.3993 104.466 71.396 103.742 71.2148 103.017C71.2148 102.926 71.2148 102.926 71.2148 102.836L71.3054 102.745V103.017H72.6644C72.755 103.017 72.8456 103.107 72.9362 103.107C73.2081 103.198 73.3893 103.107 73.5705 103.017H83.7181V100.752C83.8087 100.752 83.8993 100.661 83.9899 100.661C84.0805 100.57 84.0805 100.57 84.1712 100.57C85.0772 99.8456 85.9832 99.0302 86.7987 98.1242C87.1611 97.7617 87.5235 97.3993 87.7953 97.0369C87.8859 96.8557 87.9765 96.7651 88.0671 96.5839C88.1577 96.4027 88.2483 96.3121 88.3389 96.1309C88.7013 96.3121 89.0638 96.2215 89.3356 95.859C89.5168 95.406 89.698 94.953 89.8792 94.5C90.3322 94.3188 90.7852 94.047 91.0571 93.7752C91.6007 93.3221 91.6913 92.6879 91.3289 92.0537C91.1477 91.6913 90.8758 91.4194 90.7852 91.057C90.8758 90.5134 90.9664 90.0604 90.9664 89.5168C90.9664 89.4262 90.9664 89.4262 90.9664 89.4262H91.0571C91.3289 89.3356 91.5101 89.245 91.6913 89.1544C91.7819 89.245 91.9631 89.4262 92.0537 89.4262C92.5973 89.7886 93.3222 89.3356 93.2315 88.7013C93.1409 84.7148 92.5067 80.8188 91.0571 77.104ZM37.9631 73.9329C37.8725 73.8423 37.9631 73.8423 37.9631 73.8423C38.0537 73.9329 38.1443 73.9329 38.2349 74.0235C38.1443 74.0235 38.0537 73.9329 37.9631 73.9329ZM42.8557 72.3926C42.7651 72.3926 42.6745 72.302 42.5839 72.302C42.4933 72.2114 42.4027 72.2114 42.3121 72.1208C42.3121 72.0302 42.3121 71.849 42.2215 71.7584C42.4933 71.849 42.7651 72.0302 43.0369 72.1208C42.9463 72.302 42.8557 72.302 42.8557 72.3926ZM65.8691 35.245C65.8691 35.245 65.7785 35.245 65.8691 35.245C65.7785 35.245 65.7785 35.245 65.8691 35.245C65.7785 35.0637 65.7785 34.8825 65.7785 34.8825C65.7785 34.7013 65.7785 34.5201 65.8691 34.3389C65.9597 34.5201 66.0503 34.6107 66.2316 34.7919C66.1409 34.9731 65.9597 35.0637 65.8691 35.245ZM87.3423 47.4765C87.3423 47.3859 87.3423 47.3859 87.3423 47.2953C87.3423 46.7517 87.3423 46.1174 87.4329 45.5738C87.4329 45.4832 87.4329 45.4832 87.4329 45.3926C87.4329 45.3926 87.4329 45.3926 87.5235 45.3926C87.4329 46.1174 87.3423 46.7517 87.3423 47.4765ZM89.6074 57.7148C89.6074 57.8054 89.6074 57.896 89.6074 57.9866H89.5168C89.6074 57.8054 89.6074 57.8054 89.6074 57.7148ZM90.4228 81.3624C90.5134 81.2718 90.5134 81.0906 90.5134 80.9094C90.604 81.0906 90.604 81.2718 90.604 81.453C90.604 81.3624 90.5134 81.3624 90.4228 81.3624Z" fill="white"/>
</g>
<path d="M38.5973 66.6845C35.1544 66.6845 32.3456 69.4933 32.3456 72.9362C32.3456 74.5671 32.9799 76.198 34.1577 77.3758L55.2685 98.4865C60.0705 103.289 66.4128 105.916 73.2081 105.916C84.9866 105.916 94.5 96.4027 94.5 84.6241V47.0235C94.5 43.3993 91.6007 40.5 87.9765 40.5C86.7987 40.5 85.6208 40.7718 84.7148 41.406V40.5C84.7148 36.8758 81.8154 33.9765 78.1913 33.9765C77.0134 33.9765 75.8356 34.2483 74.9295 34.8825V33.9765C74.9295 30.3523 71.9396 27.453 68.406 27.453C64.7819 27.453 61.8826 30.3523 61.8826 33.9765V34.8825C60.8859 34.3389 59.7987 33.9765 58.6208 33.9765C54.9966 33.9765 52.0973 36.8758 52.0973 40.5V72.2114L38.5973 66.6845ZM91.2383 84.6241C91.2383 94.5 83.1745 102.564 73.2081 102.564C67.3188 102.564 61.7919 100.299 57.6242 96.1309L36.4228 75.0201C35.8792 74.4765 35.5168 73.7517 35.5168 72.9362C35.5168 71.3054 36.8758 69.9463 38.5067 69.9463C39.5034 69.9463 40.5 70.2181 41.406 70.6711L52.7315 76.3792C53.2752 76.651 53.8188 76.651 54.3624 76.2886C54.8154 76.0168 55.1779 75.4731 55.1779 74.9295V40.5C55.1779 38.6879 56.6275 37.2382 58.4396 37.2382C60.2517 37.2382 61.7013 38.6879 61.7013 40.5V61.7919C61.7013 62.698 62.4262 63.4228 63.3322 63.4228C64.2383 63.4228 64.9631 62.698 64.9631 61.7919V33.9765C64.9631 32.1644 66.4128 30.7147 68.2248 30.7147C70.0369 30.7147 71.4866 32.1644 71.4866 33.9765V61.7919C71.4866 62.698 72.2114 63.4228 73.1174 63.4228C74.0235 63.4228 74.7483 62.698 74.7483 61.7919V40.5C74.7483 38.6879 76.198 37.2382 78.0101 37.2382C79.8221 37.2382 81.2718 38.6879 81.2718 40.5V61.7919C81.2718 62.698 81.9966 63.4228 82.9027 63.4228C83.8087 63.4228 84.5336 62.698 84.5336 61.7919V47.0235C84.5336 45.2114 85.9832 43.7617 87.7953 43.7617C89.6074 43.7617 91.057 45.2114 91.057 47.0235L91.2383 84.6241Z" fill="url(#paint4_linear)"/>
<path d="M67.7718 34.2483H65.4161V36.8758H67.7718V34.2483Z" fill="#07485E"/>
<path d="M70.1275 31.4396H67.7718V34.0671H70.1275V31.4396Z" fill="#07485E"/>
<path d="M71.3054 36.4228H68.9497V39.0503H71.3054V36.4228Z" fill="#07485E"/>
<path d="M70.1275 39.2315H67.7718V41.859H70.1275V39.2315Z" fill="#07485E"/>
<path d="M61.792 39.3221H59.4362V41.9497H61.792V39.3221Z" fill="#07485E"/>
<path d="M77.3758 39.3221H75.0201V41.9497H77.3758V39.3221Z" fill="#07485E"/>
<path d="M79.4597 39.3221H77.104V41.9497H79.4597V39.3221Z" fill="#07485E"/>
<path d="M60.1611 41.9496H57.8054V44.5772H60.1611V41.9496Z" fill="#07485E"/>
<path d="M71.6678 41.9496H69.3121V44.5772H71.6678V41.9496Z" fill="#07485E"/>
<path d="M81.5436 41.9496H79.1879V44.5772H81.5436V41.9496Z" fill="#07485E"/>
<path d="M61.5201 44.5771H59.1644V47.1141H61.5201V44.5771Z" fill="#07485E"/>
<path d="M67.7718 44.5771H65.4161V47.1141H67.7718V44.5771Z" fill="#07485E"/>
<path d="M77.1946 44.5771H74.8389V47.1141H77.1946V44.5771Z" fill="#07485E"/>
<path d="M81.5436 44.5771H79.1879V47.1141H81.5436V44.5771Z" fill="#07485E"/>
<path d="M59.7987 47.1141H57.443V49.7416H59.7987V47.1141Z" fill="#07485E"/>
<path d="M70.1275 47.1141H67.7718V49.7416H70.1275V47.1141Z" fill="#07485E"/>
<path d="M77.1946 47.1141H74.8389V49.7416H77.1946V47.1141Z" fill="#07485E"/>
<path d="M79.4597 47.1141H77.104V49.7416H79.4597V47.1141Z" fill="#07485E"/>
<path d="M58.349 49.651H55.9933V52.2785H58.349V49.651Z" fill="#07485E"/>
<path d="M60.7047 49.651H58.349V52.2785H60.7047V49.651Z" fill="#07485E"/>
<path d="M57.5336 44.6678H55.1779V47.2953H57.5336V44.6678Z" fill="#07485E"/>
<path d="M67.7718 49.651H65.4161V52.2785H67.7718V49.651Z" fill="#07485E"/>
<path d="M70.1275 49.651H67.7718V52.2785H70.1275V49.651Z" fill="#07485E"/>
<path d="M71.6678 53.0939H69.3121V55.7215H71.6678V53.0939Z" fill="#07485E"/>
<path d="M77.1946 49.651H74.8389V52.2785H77.1946V49.651Z" fill="#07485E"/>
<path d="M86.9799 47.3859H84.6242V50.0134H86.9799V47.3859Z" fill="#07485E"/>
<path d="M88.8826 49.651H86.5269V52.2785H88.8826V49.651Z" fill="#07485E"/>
<path d="M91.2383 47.2047H88.8826V49.8322H91.2383V47.2047Z" fill="#07485E"/>
<path d="M60.7047 52.2785H58.349V54.906H60.7047V52.2785Z" fill="#07485E"/>
<path d="M61.7013 52.2785H60.7047V54.906H61.7013V52.2785Z" fill="#07485E"/>
<path d="M67.7718 52.2785H65.4161V54.906H67.7718V52.2785Z" fill="#07485E"/>
<path d="M77.1946 52.2785H74.8389V54.906H77.1946V52.2785Z" fill="#07485E"/>
<path d="M79.4597 52.2785H77.104V54.906H79.4597V52.2785Z" fill="#07485E"/>
<path d="M81.5436 52.2785H79.1879V54.906H81.5436V52.2785Z" fill="#07485E"/>
<path d="M91.2383 52.2785H88.8826V54.906H91.2383V52.2785Z" fill="#07485E"/>
<path d="M57.5336 57.4429H55.1779V60.0704H57.5336V57.4429Z" fill="#07485E"/>
<path d="M58.349 54.8154H55.9933V57.4429H58.349V54.8154Z" fill="#07485E"/>
<path d="M61.792 54.8154H59.4362V57.4429H61.792V54.8154Z" fill="#07485E"/>
<path d="M77.1946 54.8154H74.8389V57.4429H77.1946V54.8154Z" fill="#07485E"/>
<path d="M79.4597 54.8154H77.104V57.4429H79.4597V54.8154Z" fill="#07485E"/>
<path d="M81.5436 54.8154H79.1879V57.4429H81.5436V54.8154Z" fill="#07485E"/>
<path d="M88.8826 54.8154H86.5269V57.4429H88.8826V54.8154Z" fill="#07485E"/>
<path d="M67.7718 57.4429H65.4161V60.0704H67.7718V57.4429Z" fill="#07485E"/>
<path d="M70.1275 57.4429H67.7718V60.0704H70.1275V57.4429Z" fill="#07485E"/>
<path d="M71.6678 55.4496H69.3121V57.9866H71.6678V55.4496Z" fill="#07485E"/>
<path d="M79.4597 57.4429H77.104V60.0704H79.4597V57.4429Z" fill="#07485E"/>
<path d="M88.8826 57.4429H86.5269V60.0704H88.8826V57.4429Z" fill="#07485E"/>
<path d="M91.2383 57.4429H88.8826V60.0704H91.2383V57.4429Z" fill="#07485E"/>
<path d="M57.5336 62.1544H55.1779V64.7819H57.5336V62.1544Z" fill="#07485E"/>
<path d="M58.349 59.9799H55.9933V62.6074H58.349V59.9799Z" fill="#07485E"/>
<path d="M60.7047 59.9799H58.349V62.6074H60.7047V59.9799Z" fill="#07485E"/>
<path d="M70.1275 59.9799H67.7718V62.6074H70.1275V59.9799Z" fill="#07485E"/>
<path d="M72.4832 63.2416H70.1275V65.8691H72.4832V63.2416Z" fill="#07485E"/>
<path d="M86.5268 62.6074H84.1711V65.2349H86.5268V62.6074Z" fill="#07485E"/>
<path d="M88.8826 59.9799H86.5269V62.6074H88.8826V59.9799Z" fill="#07485E"/>
<path d="M60.7047 62.6074H58.349V65.2349H60.7047V62.6074Z" fill="#07485E"/>
<path d="M63.0604 63.3322H60.7047V65.9597H63.0604V63.3322Z" fill="#07485E"/>
<path d="M67.7718 62.6074H65.4161V65.2349H67.7718V62.6074Z" fill="#07485E"/>
<path d="M74.8389 63.7852H72.4832V66.4127H74.8389V63.7852Z" fill="#07485E"/>
<path d="M77.1946 62.6074H74.8389V65.2349H77.1946V62.6074Z" fill="#07485E"/>
<path d="M79.4597 62.6074H77.104V65.2349H79.4597V62.6074Z" fill="#07485E"/>
<path d="M81.8154 62.6074H79.4597V65.2349H81.8154V62.6074Z" fill="#07485E"/>
<path d="M91.2383 62.6074H88.8826V65.2349H91.2383V62.6074Z" fill="#07485E"/>
<path d="M58.349 65.1443H55.9933V67.7718H58.349V65.1443Z" fill="#07485E"/>
<path d="M63.0604 65.1443H60.7047V67.7718H63.0604V65.1443Z" fill="#07485E"/>
<path d="M65.4161 65.1443H63.0604V67.7718H65.4161V65.1443Z" fill="#07485E"/>
<path d="M67.7718 65.1443H65.4161V67.7718H67.7718V65.1443Z" fill="#07485E"/>
<path d="M79.4597 65.1443H77.104V67.7718H79.4597V65.1443Z" fill="#07485E"/>
<path d="M74.8389 94.8624H72.4832V97.4899H74.8389V94.8624Z" fill="#07485E"/>
<path d="M60.7047 67.7718H58.349V70.3993H60.7047V67.7718Z" fill="#07485E"/>
<path d="M63.5134 96.4933H61.1577V99.1208H63.5134V96.4933Z" fill="#07485E"/>
<path d="M72.4832 67.7718H70.1275V70.3993H72.4832V67.7718Z" fill="#07485E"/>
<path d="M77.1946 67.7718H74.8389V70.3993H77.1946V67.7718Z" fill="#07485E"/>
<path d="M84.1712 67.7718H81.8154V70.3993H84.1712V67.7718Z" fill="#07485E"/>
<path d="M88.8826 67.7718H86.5269V70.3993H88.8826V67.7718Z" fill="#07485E"/>
<path d="M44.3054 72.0302H41.9497V74.6577H44.3054V72.0302Z" fill="#07485E"/>
<path d="M58.349 70.3087H55.9933V72.9362H58.349V70.3087Z" fill="#07485E"/>
<path d="M85.802 94.8624H83.4463V97.4899H85.802V94.8624Z" fill="#07485E"/>
<path d="M70.1275 70.3087H67.7718V72.9362H70.1275V70.3087Z" fill="#07485E"/>
<path d="M74.8389 70.3087H72.4832V72.9362H74.8389V70.3087Z" fill="#07485E"/>
<path d="M77.1946 70.3087H74.8389V72.9362H77.1946V70.3087Z" fill="#07485E"/>
<path d="M79.4597 70.3087H77.104V72.9362H79.4597V70.3087Z" fill="#07485E"/>
<path d="M81.8154 70.3087H79.4597V72.9362H81.8154V70.3087Z" fill="#07485E"/>
<path d="M84.1712 70.3087H81.8154V72.9362H84.1712V70.3087Z" fill="#07485E"/>
<path d="M86.5268 70.3087H84.1711V72.9362H86.5268V70.3087Z" fill="#07485E"/>
<path d="M88.8826 70.3087H86.5269V72.9362H88.8826V70.3087Z" fill="#07485E"/>
<path d="M91.2383 70.4899V73.1174H88.8826V70.4899" fill="#07485E"/>
<path d="M63.0604 72.8456H60.7047V75.4732H63.0604V72.8456Z" fill="#07485E"/>
<path d="M72.4832 72.8456H70.1275V75.4732H72.4832V72.8456Z" fill="#07485E"/>
<path d="M81.8154 72.8456H79.4597V75.4732H81.8154V72.8456Z" fill="#07485E"/>
<path d="M91.2383 72.8456H88.8826V75.4732H91.2383V72.8456Z" fill="#07485E"/>
<path d="M63.0604 75.4731H60.7047V78.1007H63.0604V75.4731Z" fill="#07485E"/>
<path d="M65.4161 75.4731H63.0604V78.1007H65.4161V75.4731Z" fill="#07485E"/>
<path d="M67.7718 75.4731H65.4161V78.1007H67.7718V75.4731Z" fill="#07485E"/>
<path d="M70.1275 75.4731H67.7718V78.1007H70.1275V75.4731Z" fill="#07485E"/>
<path d="M72.4832 75.4731H70.1275V78.1007H72.4832V75.4731Z" fill="#07485E"/>
<path d="M74.8389 75.4731H72.4832V78.1007H74.8389V75.4731Z" fill="#07485E"/>
<path d="M77.1946 75.4731H74.8389V78.1007H77.1946V75.4731Z" fill="#07485E"/>
<path d="M81.8154 75.4731H79.4597V78.1007H81.8154V75.4731Z" fill="#07485E"/>
<path d="M86.5268 75.4731H84.1711V78.1007H86.5268V75.4731Z" fill="#07485E"/>
<path d="M91.2383 75.4731H88.8826V78.1007H91.2383V75.4731Z" fill="#07485E"/>
<path d="M65.4161 78.0101H63.0604V80.6376H65.4161V78.0101Z" fill="#07485E"/>
<path d="M70.1275 78.0101H67.7718V80.6376H70.1275V78.0101Z" fill="#07485E"/>
<path d="M74.8389 78.0101H72.4832V80.6376H74.8389V78.0101Z" fill="#07485E"/>
<path d="M81.8154 78.0101H79.4597V80.6376H81.8154V78.0101Z" fill="#07485E"/>
<path d="M91.2383 78.0101H88.8826V80.6376H91.2383V78.0101Z" fill="#07485E"/>
<path d="M63.0604 80.6376H60.7047V83.2651H63.0604V80.6376Z" fill="#07485E"/>
<path d="M65.4161 80.6376H63.0604V83.2651H65.4161V80.6376Z" fill="#07485E"/>
<path d="M72.4832 80.6376H70.1275V83.2651H72.4832V80.6376Z" fill="#07485E"/>
<path d="M74.8389 80.6376H72.4832V83.2651H74.8389V80.6376Z" fill="#07485E"/>
<path d="M81.8154 80.6376H79.4597V83.2651H81.8154V80.6376Z" fill="#07485E"/>
<path d="M84.1712 80.6376H81.8154V83.2651H84.1712V80.6376Z" fill="#07485E"/>
<path d="M86.5268 80.6376H84.1711V83.2651H86.5268V80.6376Z" fill="#07485E"/>
<path d="M88.8826 80.6376H86.5269V83.2651H88.8826V80.6376Z" fill="#07485E"/>
<path d="M91.2383 80.6376H88.8826V83.2651H91.2383V80.6376Z" fill="#07485E"/>
<path d="M67.7718 83.2651H65.4161V85.8926H67.7718V83.2651Z" fill="#07485E"/>
<path d="M74.8389 83.2651H72.4832V85.8926H74.8389V83.2651Z" fill="#07485E"/>
<path d="M77.1946 83.2651H74.8389V85.8926H77.1946V83.2651Z" fill="#07485E"/>
<path d="M79.4597 83.2651H77.104V85.8926H79.4597V83.2651Z" fill="#07485E"/>
<path d="M81.8154 83.2651H79.4597V85.8926H81.8154V83.2651Z" fill="#07485E"/>
<path d="M72.4832 93.7751H70.1275V96.4027H72.4832V93.7751Z" fill="#07485E"/>
<path d="M86.5268 83.2651H84.1711V85.8926H86.5268V83.2651Z" fill="#07485E"/>
<path d="M88.8826 83.2651H86.5269V85.8926H88.8826V83.2651Z" fill="#07485E"/>
<path d="M67.7718 85.802H65.4161V88.4295H67.7718V85.802Z" fill="#07485E"/>
<path d="M79.4597 85.802H77.104V88.4295H79.4597V85.802Z" fill="#07485E"/>
<path d="M81.8154 85.802H79.4597V88.4295H81.8154V85.802Z" fill="#07485E"/>
<path d="M79.9128 94.8624H77.5571V97.4899H79.9128V94.8624Z" fill="#07485E"/>
<path d="M86.5268 85.802H84.1711V88.4295H86.5268V85.802Z" fill="#07485E"/>
<path d="M65.4161 88.4295H63.0604V91.057H65.4161V88.4295Z" fill="#07485E"/>
<path d="M67.7718 88.4295H65.4161V91.057H67.7718V88.4295Z" fill="#07485E"/>
<path d="M72.4832 88.4295H70.1275V91.057H72.4832V88.4295Z" fill="#07485E"/>
<path d="M77.1946 88.4295H74.8389V91.057H77.1946V88.4295Z" fill="#07485E"/>
<path d="M79.4597 88.4295H77.104V91.057H79.4597V88.4295Z" fill="#07485E"/>
<path d="M88.8826 88.4295H86.5269V91.057H88.8826V88.4295Z" fill="#07485E"/>
<path d="M90.9664 85.802H88.6107V88.4295H90.9664V85.802Z" fill="#07485E"/>
<path d="M63.0604 90.9664H60.7047V93.5939H63.0604V90.9664Z" fill="#07485E"/>
<path d="M65.4161 90.9664H63.0604V93.5939H65.4161V90.9664Z" fill="#07485E"/>
<path d="M67.7718 90.9664H65.4161V93.5939H67.7718V90.9664Z" fill="#07485E"/>
<path d="M70.1275 90.9664H67.7718V93.5939H70.1275V90.9664Z" fill="#07485E"/>
<path d="M74.8389 90.9664H72.4832V93.5939H74.8389V90.9664Z" fill="#07485E"/>
<path d="M77.1946 90.9664H74.8389V93.5939H77.1946V90.9664Z" fill="#07485E"/>
<path d="M79.4597 90.9664H77.104V93.5939H79.4597V90.9664Z" fill="#07485E"/>
<path d="M84.1712 90.9664H81.8154V93.5939H84.1712V90.9664Z" fill="#07485E"/>
<path d="M86.5268 90.9664H84.1711V93.5939H86.5268V90.9664Z" fill="#13456C"/>
<path d="M50.557 76.7416V79.3691H48.2013V76.7416" fill="#13456C"/>
<path d="M55.2685 76.7416V79.3691H52.9128V76.7416" fill="#07485E"/>
<path d="M59.8893 76.7416V79.3691H57.5336V76.7416" fill="#07485E"/>
<path d="M48.2013 79.3691H45.8456V81.9967H48.2013V79.3691Z" fill="#07485E"/>
<path d="M57.6242 79.3691H55.2685V81.9967H57.6242V79.3691Z" fill="#07485E"/>
<path d="M48.2013 81.906H45.8456V84.5335H48.2013V81.906Z" fill="#07485E"/>
<path d="M50.557 81.906H48.2013V84.5335H50.557V81.906Z" fill="#07485E"/>
<path d="M52.9128 81.906H50.5571V84.5335H52.9128V81.906Z" fill="#07485E"/>
<path d="M55.2685 81.906H52.9128V84.5335H55.2685V81.906Z" fill="#07485E"/>
<path d="M57.6242 81.906H55.2685V84.5335H57.6242V81.906Z" fill="#07485E"/>
<path d="M59.9799 81.906H57.6242V84.5335H59.9799V81.906Z" fill="#07485E"/>
<path d="M62.245 84.5335H59.8893V81.906H62.245" fill="#07485E"/>
<path d="M50.557 84.5336H48.2013V87.1611H50.557V84.5336Z" fill="#07485E"/>
<path d="M55.2685 84.5336H52.9128V87.1611H55.2685V84.5336Z" fill="#07485E"/>
<path d="M59.9799 84.5336H57.6242V87.1611H59.9799V84.5336Z" fill="#07485E"/>
<path d="M59.5268 96.1309V93.5034H61.8826V96.1309" fill="#07485E"/>
<path d="M64.6913 97.9429V95.3154H67.047V97.9429" fill="#07485E"/>
<path d="M55.2685 89.698V87.0704H57.6242V89.698" fill="#07485E"/>
<path d="M57.6242 89.698V87.0704H59.9799V89.698" fill="#07485E"/>
<path d="M45.8456 73.8423H43.4899V76.4698H45.8456V73.8423Z" fill="#07485E"/>
<path d="M45.8456 76.4698H43.4899V79.0973H45.8456V76.4698Z" fill="#07485E"/>
<path d="M45.8456 79.0067H43.4899V81.5436H45.8456V79.0067Z" fill="#07485E"/>
<path d="M70.1275 94.1376H67.7718V96.7651H70.1275V94.1376Z" fill="#07485E"/>
<path d="M70.1275 96.6745H67.7718V99.302H70.1275V96.6745Z" fill="#07485E"/>
<path d="M73.2987 99.755H70.943V102.383H73.2987V99.755Z" fill="#07485E"/>
<path d="M81.8154 92.2349H79.4597V94.8624H81.8154V92.2349Z" fill="#07485E"/>
<path d="M81.8154 94.8624H79.4597V97.4899H81.8154V94.8624Z" fill="#07485E"/>
<path d="M81.8154 97.3993H79.4597V100.027H81.8154V97.3993Z" fill="#07485E"/>
<path d="M76.4698 94.8624H74.1141V97.4899H76.4698V94.8624Z" fill="#07485E"/>
<path d="M76.4698 97.3993H74.1141V100.027H76.4698V97.3993Z" fill="#07485E"/>
<path d="M58.802 92.5067H56.4463V95.1342H58.802V92.5067Z" fill="#07485E"/>
<path d="M54.8154 87.8859H52.4597V90.5134H54.8154V87.8859Z" fill="#07485E"/>
<path d="M64.2383 69.4933H61.8826V72.1208H64.2383V69.4933Z" fill="#07485E"/>
<path d="M66.594 69.4933H64.2383V72.1208H66.594V69.4933Z" fill="#07485E"/>
<path d="M68.9497 69.4933H66.594V72.1208H68.9497V69.4933Z" fill="#07485E"/>
<path d="M39.594 72.4832H37.2383V75.1107H39.594V72.4832Z" fill="#07485E"/>
<path d="M41.9497 73.2986H39.594V75.9262H41.9497V73.2986Z" fill="#07485E"/>
<path d="M44.3054 73.2986H41.9497V75.9262H44.3054V73.2986Z" fill="#07485E"/>
<path d="M42.3121 76.2886H39.9564V78.8255H42.3121V76.2886Z" fill="#07485E"/>
<path d="M44.6678 77.2852H42.3121V79.9127H44.6678V77.2852Z" fill="#07485E"/>
<path d="M47.0235 77.2852H44.6678V79.9127H47.0235V77.2852Z" fill="#07485E"/>
<path d="M54.9967 73.2986H57.2617C57.2617 73.2986 57.3524 73.2986 57.3524 73.3892V75.8356C57.3524 75.8356 57.3524 75.9262 57.2617 75.9262H54.9967C54.9967 75.9262 54.906 75.9262 54.906 75.8356L54.9967 73.2986Z" fill="#07485E"/>
<path d="M57.8054 73.2986H60.0705C60.0705 73.2986 60.1611 73.2986 60.1611 73.3892V75.8356C60.1611 75.8356 60.1611 75.9262 60.0705 75.9262H57.8054C57.8054 75.9262 57.7148 75.9262 57.1711 75.8356V73.3892C57.8054 73.2986 57.8054 73.2986 57.8054 73.2986Z" fill="#07485E"/>
<path d="M60.1611 73.2986H62.4262C62.4262 73.2986 62.5168 73.2986 62.5168 73.3892V75.8356C62.5168 75.8356 62.5168 75.9262 62.4262 75.9262H60.1611C60.1611 75.9262 60.0705 75.9262 60.0705 75.8356L60.1611 73.2986Z" fill="#07485E"/>
<path d="M88.8826 44.5771H86.5269V47.1141H88.8826V44.5771Z" fill="#07485E"/>
</g>
</g>
<defs>
<filter id="filter0_ii" x="8.51678" y="-4.02264" width="117.966" height="140.955" filterUnits="userSpaceOnUse" color-interpolation-filters="sRGB">
<feFlood flood-opacity="0" result="BackgroundImageFix"/>
<feBlend mode="normal" in="SourceGraphic" in2="BackgroundImageFix" result="shape"/>
<feColorMatrix in="SourceAlpha" type="matrix" values="0 0 0 0 0 0 0 0 0 0 0 0 0 0 0 0 0 0 127 0" result="hardAlpha"/>
<feOffset dy="2"/>
<feGaussianBlur stdDeviation="2"/>
<feComposite in2="hardAlpha" operator="arithmetic" k2="-1" k3="1"/>
<feColorMatrix type="matrix" values="0 0 0 0 0 0 0 0 0 0 0 0 0 0 0 0 0 0 0.25 0"/>
<feBlend mode="normal" in2="shape" result="effect1_innerShadow"/>
<feColorMatrix in="SourceAlpha" type="matrix" values="0 0 0 0 0 0 0 0 0 0 0 0 0 0 0 0 0 0 127 0" result="hardAlpha"/>
<feOffset dy="-4"/>
<feGaussianBlur stdDeviation="3"/>
<feComposite in2="hardAlpha" operator="arithmetic" k2="-1" k3="1"/>
<feColorMatrix type="matrix" values="0 0 0 0 0 0 0 0 0 0 0 0 0 0 0 0 0 0 0.25 0"/>
<feBlend mode="normal" in2="effect1_innerShadow" result="effect2_innerShadow"/>
</filter>
<filter id="filter1_ii" x="18.755" y="8.69128" width="99.4899" height="122.879" filterUnits="userSpaceOnUse" color-interpolation-filters="sRGB">
<feFlood flood-opacity="0" result="BackgroundImageFix"/>
<feBlend mode="normal" in="SourceGraphic" in2="BackgroundImageFix" result="shape"/>
<feColorMatrix in="SourceAlpha" type="matrix" values="0 0 0 0 0 0 0 0 0 0 0 0 0 0 0 0 0 0 127 0" result="hardAlpha"/>
<feOffset dx="2" dy="-2"/>
<feGaussianBlur stdDeviation="2"/>
<feComposite in2="hardAlpha" operator="arithmetic" k2="-1" k3="1"/>
<feColorMatrix type="matrix" values="0 0 0 0 0 0 0 0 0 0 0 0 0 0 0 0 0 0 0.15 0"/>
<feBlend mode="normal" in2="shape" result="effect1_innerShadow"/>
<feColorMatrix in="SourceAlpha" type="matrix" values="0 0 0 0 0 0 0 0 0 0 0 0 0 0 0 0 0 0 127 0" result="hardAlpha"/>
<feOffset dy="4"/>
<feGaussianBlur stdDeviation="2"/>
<feComposite in2="hardAlpha" operator="arithmetic" k2="-1" k3="1"/>
<feColorMatrix type="matrix" values="0 0 0 0 0 0 0 0 0 0 0 0 0 0 0 0 0 0 0.25 0"/>
<feBlend mode="normal" in2="effect1_innerShadow" result="effect2_innerShadow"/>
</filter>
<filter id="filter2_d" x="28.3456" y="27.453" width="70.245" height="86.4631" filterUnits="userSpaceOnUse" color-interpolation-filters="sRGB">
<feFlood flood-opacity="0" result="BackgroundImageFix"/>
<feColorMatrix in="SourceAlpha" type="matrix" values="0 0 0 0 0 0 0 0 0 0 0 0 0 0 0 0 0 0 127 0"/>
<feOffset dy="4"/>
<feGaussianBlur stdDeviation="2"/>
<feColorMatrix type="matrix" values="0 0 0 0 0 0 0 0 0 0 0 0 0 0 0 0 0 0 0.25 0"/>
<feBlend mode="normal" in2="BackgroundImageFix" result="effect1_dropShadow"/>
<feBlend mode="normal" in="SourceGraphic" in2="effect1_dropShadow" result="shape"/>
</filter>
<filter id="filter3_i" x="34.7746" y="29.9493" width="58.4647" height="78.1261" filterUnits="userSpaceOnUse" color-interpolation-filters="sRGB">
<feFlood flood-opacity="0" result="BackgroundImageFix"/>
<feBlend mode="normal" in="SourceGraphic" in2="BackgroundImageFix" result="shape"/>
<feColorMatrix in="SourceAlpha" type="matrix" values="0 0 0 0 0 0 0 0 0 0 0 0 0 0 0 0 0 0 127 0" result="hardAlpha"/>
<feOffset dy="4"/>
<feGaussianBlur stdDeviation="2"/>
<feComposite in2="hardAlpha" operator="arithmetic" k2="-1" k3="1"/>
<feColorMatrix type="matrix" values="0 0 0 0 0 0 0 0 0 0 0 0 0 0 0 0 0 0 0.25 0"/>
<feBlend mode="normal" in2="shape" result="effect1_innerShadow"/>
</filter>
<linearGradient id="paint0_linear" x1="18.0549" y1="6.37817" x2="119.823" y2="108.146" gradientUnits="userSpaceOnUse">
<stop offset="0.1706" stop-color="#FFAA00"/>
<stop offset="1" stop-color="#FDBF00"/>
</linearGradient>
<linearGradient id="paint1_linear" x1="133.903" y1="123.844" x2="43.8586" y2="33.8007" gradientUnits="userSpaceOnUse">
<stop stop-color="#FF9100"/>
<stop offset="1" stop-color="#FF9100"/>
</linearGradient>
<linearGradient id="paint2_linear" x1="22.7813" y1="69.0686" x2="112.219" y2="69.0686" gradientUnits="userSpaceOnUse">
<stop stop-color="white"/>
<stop offset="1" stop-color="#FFF6BF"/>
</linearGradient>
<linearGradient id="paint3_linear" x1="79.7636" y1="69.7745" x2="-1.49742" y2="30.7694" gradientUnits="userSpaceOnUse">
<stop stop-color="#F5F2F2" stop-opacity="0"/>
<stop offset="0.4541" stop-opacity="0.25"/>
<stop offset="0.6955" stop-color="#E3CA98"/>
<stop offset="0.8854" stop-color="#6F6B66" stop-opacity="0.6353"/>
</linearGradient>
<linearGradient id="paint4_linear" x1="32.3262" y1="66.6826" x2="94.4737" y2="66.6826" gradientUnits="userSpaceOnUse">
<stop offset="0.9999" stop-color="#E29701"/>
<stop offset="1" stop-color="#FFC100"/>
</linearGradient>
<clipPath id="clip0">
<rect width="135" height="135" fill="white"/>
</clipPath>
</defs>
</svg>
