<svg width="29" height="29" viewBox="0 0 29 29" fill="none" xmlns="http://www.w3.org/2000/svg">
<path d="M8.15625 18.4648C8.7819 18.4648 9.28906 18.972 9.28906 19.5977C9.28906 20.2233 8.7819 20.7305 8.15625 20.7305C7.5306 20.7305 7.02344 20.2233 7.02344 19.5977C7.02344 18.972 7.5306 18.4648 8.15625 18.4648ZM11.2715 19.5977C11.2715 20.2233 11.7786 20.7305 12.4043 20.7305C13.0299 20.7305 13.5371 20.2233 13.5371 19.5977C13.5371 18.972 13.0299 18.4648 12.4043 18.4648C11.7786 18.4648 11.2715 18.972 11.2715 19.5977ZM15.5195 19.5977C15.5195 20.2233 16.0267 20.7305 16.6523 20.7305C17.278 20.7305 17.7852 20.2233 17.7852 19.5977C17.7852 18.972 17.278 18.4648 16.6523 18.4648C16.0267 18.4648 15.5195 18.972 15.5195 19.5977ZM19.8242 19.5977C19.8242 20.2233 20.3314 20.7305 20.957 20.7305C21.5827 20.7305 22.0898 20.2233 22.0898 19.5977C22.0898 18.972 21.5827 18.4648 20.957 18.4648C20.3314 18.4648 19.8242 18.972 19.8242 19.5977ZM24.9219 19.3711V15.1797C24.9219 13.9304 23.9055 12.9141 22.6562 12.9141H6.34375C5.09448 12.9141 4.07812 13.9304 4.07812 15.1797V24.4688C4.07812 25.718 5.09448 26.7344 6.34375 26.7344H22.6562C23.9055 26.7344 24.9219 25.718 24.9219 24.4688C24.9219 23.8431 25.429 23.3359 26.0547 23.3359C26.6803 23.3359 27.1875 23.8431 27.1875 24.4688C27.1875 26.9673 25.1548 29 22.6562 29H6.34375C3.84522 29 1.8125 26.9673 1.8125 24.4688V15.1797C1.8125 12.6812 3.84522 10.6484 6.34375 10.6484H7.70103V6.65335C7.70103 2.98468 10.7501 0 14.4979 0C18.2457 0 21.2948 2.98468 21.2948 6.65335V10.6484H22.6562C25.1548 10.6484 27.1875 12.6812 27.1875 15.1797V19.3711C27.1875 19.9967 26.6803 20.5039 26.0547 20.5039C25.429 20.5039 24.9219 19.9967 24.9219 19.3711ZM9.96665 10.6484H19.0292V6.65335C19.0292 4.23394 16.9964 2.26562 14.4979 2.26562C11.9994 2.26562 9.96665 4.23394 9.96665 6.65335V10.6484Z" fill="url(#paint0_linear)"/>
<defs>
<linearGradient id="paint0_linear" x1="1.8125" y1="14.5" x2="27.1875" y2="14.5" gradientUnits="userSpaceOnUse">
<stop offset="0.021" stop-color="#A8C8D9"/>
</linearGradient>
</defs>
</svg>
