<svg width="124" height="124" viewBox="0 0 124 124" fill="none" xmlns="http://www.w3.org/2000/svg">
<g clip-path="url(#clip0)">
<path d="M118.496 59.2433H5.50414C2.4642 59.2433 0 61.7078 0 64.7475V107.222C0 110.261 2.4642 112.726 5.50414 112.726H118.496C121.536 112.726 124 110.262 124 107.222V64.7475C124 61.7078 121.536 59.2433 118.496 59.2433Z" fill="url(#paint0_linear)"/>
<path d="M112.991 65.8742H11.0085C8.51418 65.8742 6.49225 67.8961 6.49225 70.3905V101.578C6.49225 104.073 8.51418 106.095 11.0085 106.095H112.991C115.486 106.095 117.508 104.073 117.508 101.578V70.3905C117.508 67.8961 115.486 65.8742 112.991 65.8742Z" fill="url(#paint1_linear)"/>
<path d="M39.0233 74.1107L77.6384 112.726H118.496C121.536 112.726 124 110.262 124 107.222V96.093L87.1506 59.2433H37.3362V69.7656C37.3362 71.5427 37.7035 73.1204 39.0233 74.1107Z" fill="url(#paint2_linear)"/>
<path d="M58.962 106.095H25.685L14.8238 95.2344C14.0577 94.7645 13.686 94.0302 13.686 93.0756C13.686 92.3851 13.95 91.8018 14.3215 91.3751L16.0422 89.1694L11.6407 84.6519C10.7034 84.2544 10.497 83.2881 10.497 82.0751C10.497 80.6939 11.4753 79.3936 13.1759 79.3936C13.3353 79.3936 13.6023 79.3936 13.9738 79.5531L19.7972 81.3608L19.5302 75.6971C19.5854 73.9417 20.671 73.3898 22.1566 73.3898C23.2738 73.3898 24.2719 73.5933 24.7217 74.5597L30.0895 79.7417C30.0895 79.7417 30.9285 79.3936 31.1926 79.3936C32.15 79.3936 32.9278 79.7451 33.4095 80.5431L42.1466 89.2802L58.962 106.095Z" fill="url(#paint3_linear)"/>
<path d="M85.559 106.095H52.2821L41.4209 95.2342C40.6547 94.7642 40.283 94.0299 40.283 93.0754C40.283 92.3849 40.547 91.8016 40.9185 91.3749L42.6392 89.1691L38.2377 84.6517C37.3004 84.2541 37.094 83.2879 37.094 82.0749C37.094 80.6936 38.0724 79.3933 39.7726 79.3933C39.9321 79.3933 40.1991 79.3933 40.5706 79.5528L46.394 81.3605L46.127 75.6969C46.1822 73.9415 47.2678 73.1464 48.7536 73.1464C49.8709 73.1464 50.866 73.5933 51.3187 74.5595L56.4431 79.4981L56.9916 79.3094C57.2586 79.2049 57.5255 79.1499 57.7896 79.1499C58.7471 79.1499 59.5249 79.7449 60.0065 80.5429L85.559 106.095Z" fill="url(#paint4_linear)"/>
<path d="M112.153 106.095H78.8793L68.0181 95.2342C67.252 94.7642 66.634 94.0299 66.634 93.0754C66.634 92.3849 66.9009 91.8016 67.2724 91.3749L68.7437 89.2798L68.9931 88.9258L64.8321 84.6517C63.8977 84.2541 63.445 83.2879 63.445 82.0749C63.445 80.6936 64.6694 79.1499 66.3699 79.1499C66.5294 79.1499 66.7935 79.1499 67.1679 79.3094L72.7479 81.1172L72.4809 75.6967C72.5361 73.9412 73.8622 73.1461 75.3507 73.1461C76.4679 73.1461 77.463 73.593 77.9158 74.5593L83.0401 79.4979L83.5884 79.3092C83.8554 79.2046 84.1194 79.1497 84.3864 79.1497C85.3439 79.1497 86.1187 79.7447 86.6033 80.5426L95.3404 89.2798L112.153 106.095Z" fill="url(#paint5_linear)"/>
<path d="M117.507 84.8491V101.577C117.507 104.073 115.485 106.095 112.992 106.095H105.474L94.6125 95.2342C93.8493 94.7642 93.2312 94.0299 93.2312 93.0754C93.2312 92.3849 93.4982 91.8016 93.8697 91.3749L95.3409 89.2798L95.5906 88.9258L91.4296 84.6517C90.4952 84.2541 90.0427 83.2879 90.0427 82.0749C90.0427 80.6936 91.2672 79.1499 92.9677 79.1499C93.1272 79.1499 93.3912 79.1499 93.7627 79.3094L99.3456 81.1172L99.0787 75.6967C99.131 73.9412 100.46 73.1461 101.948 73.1461C103.066 73.1461 104.061 73.593 104.514 74.5593L109.635 79.4979L110.186 79.3092C110.453 79.2046 110.717 79.1497 110.984 79.1497C111.942 79.1497 112.717 79.7447 113.201 80.5426L117.507 84.8491Z" fill="url(#paint6_linear)"/>
<path d="M30.4493 91.4286C30.715 91.7474 30.8743 92.3854 30.8743 92.9699C30.8743 94.6706 29.1736 95.8399 27.6323 95.8399C27.0478 95.8399 26.1976 95.7336 25.6128 94.8301L22.1581 89.5151L18.6503 94.8831C18.1721 95.6804 17.5343 95.8399 16.7901 95.8399C15.5143 95.8399 13.4418 94.8301 13.4418 93.0761C13.4418 92.3854 13.7076 91.8006 14.0796 91.3754L17.5873 86.3794L12.0601 84.7849C10.8376 84.5191 10.2529 83.4561 10.2529 82.0744C10.2529 80.6924 11.4753 79.1511 13.1761 79.1511C13.3356 79.1511 13.6013 79.1512 13.9733 79.3106L19.5541 81.1176L19.2881 75.6967C19.3413 73.9429 20.6701 73.1457 22.1581 73.1457C23.6463 73.1457 24.9218 73.9429 24.9751 75.6967L24.7623 81.2241L30.396 79.3106C30.6618 79.2044 30.9275 79.1511 31.1933 79.1511C32.841 79.1511 33.957 80.9051 33.957 82.4464C33.957 83.5094 33.4255 84.5191 32.15 84.7849L26.7288 86.0604L30.4493 91.4286Z" fill="url(#paint7_linear)"/>
<path d="M57.0461 91.4286C57.3118 91.7474 57.4711 92.3854 57.4711 92.9699C57.4711 94.6706 55.7703 95.8399 54.2291 95.8399C53.6446 95.8399 52.7943 95.7336 52.2096 94.8301L48.7549 89.5151L45.2471 94.8831C44.7689 95.6804 44.1311 95.8399 43.3869 95.8399C42.1111 95.8399 40.0386 94.8301 40.0386 93.0761C40.0386 92.3854 40.3044 91.8006 40.6764 91.3754L44.1841 86.3794L38.6569 84.7849C37.4344 84.5191 36.8496 83.4561 36.8496 82.0744C36.8496 80.6924 38.0721 79.1511 39.7729 79.1511C39.9324 79.1511 40.1981 79.1512 40.5701 79.3106L46.1509 81.1176L45.8849 75.6967C45.9381 73.9429 47.2669 73.1457 48.7549 73.1457C50.2431 73.1457 51.5186 73.9429 51.5718 75.6967L51.3591 81.2241L56.9928 79.3106C57.2586 79.2044 57.5243 79.1511 57.7901 79.1511C59.4378 79.1511 60.5538 80.9051 60.5538 82.4464C60.5538 83.5094 60.0223 84.5191 58.7468 84.7849L53.3256 86.0604L57.0461 91.4286Z" fill="url(#paint8_linear)"/>
<path d="M83.6429 91.4286C83.9086 91.7474 84.0679 92.3854 84.0679 92.9699C84.0679 94.6706 82.3671 95.8399 80.8259 95.8399C80.2414 95.8399 79.3911 95.7336 78.8064 94.8301L75.3516 89.5151L71.8439 94.8831C71.3656 95.6804 70.7279 95.8399 69.9837 95.8399C68.7079 95.8399 66.6354 94.8301 66.6354 93.0761C66.6354 92.3854 66.9012 91.8006 67.2732 91.3754L70.7809 86.3794L65.2537 84.7849C64.0312 84.5191 63.4464 83.4561 63.4464 82.0744C63.4464 80.6924 64.6689 79.1511 66.3697 79.1511C66.5292 79.1511 66.7949 79.1512 67.1669 79.3106L72.7476 81.1176L72.4816 75.6967C72.5349 73.9429 73.8636 73.1457 75.3516 73.1457C76.8399 73.1457 78.1154 73.9429 78.1686 75.6967L77.9559 81.2241L83.5896 79.3106C83.8554 79.2044 84.1211 79.1511 84.3869 79.1511C86.0346 79.1511 87.1506 80.9051 87.1506 82.4464C87.1506 83.5094 86.6191 84.5191 85.3436 84.7849L79.9224 86.0604L83.6429 91.4286Z" fill="url(#paint9_linear)"/>
<path d="M110.24 91.4286C110.505 91.7474 110.665 92.3854 110.665 92.9699C110.665 94.6706 108.964 95.8399 107.423 95.8399C106.838 95.8399 105.988 95.7336 105.403 94.8301L101.948 89.5151L98.4407 94.8831C97.9624 95.6804 97.3247 95.8399 96.5805 95.8399C95.3047 95.8399 93.2322 94.8301 93.2322 93.0761C93.2322 92.3854 93.498 91.8006 93.87 91.3754L97.3777 86.3794L91.8505 84.7849C90.628 84.5191 90.0432 83.4561 90.0432 82.0744C90.0432 80.6924 91.2657 79.1511 92.9665 79.1511C93.126 79.1511 93.3917 79.1512 93.7637 79.3106L99.3444 81.1176L99.0784 75.6967C99.1317 73.9429 100.46 73.1457 101.948 73.1457C103.437 73.1457 104.712 73.9429 104.765 75.6967L104.553 81.2241L110.186 79.3106C110.452 79.2044 110.718 79.1511 110.984 79.1511C112.631 79.1511 113.747 80.9051 113.747 82.4464C113.747 83.5094 113.216 84.5191 111.94 84.7849L106.519 86.0604L110.24 91.4286Z" fill="url(#paint10_linear)"/>
<path d="M77.7359 30.7017H77.676C76.0285 30.7017 74.5824 29.6481 74.0287 28.0964C72.131 22.7766 67.0135 18.9727 61.0343 19.0423C53.5478 19.1295 47.5742 25.339 47.5742 32.8262V35.9456H39.8069V32.6618C39.8069 20.8687 49.4016 11.2743 61.1957 11.2743C70.5103 11.2743 78.4536 17.2596 81.3807 25.5861C82.2597 28.0857 80.3853 30.7017 77.7359 30.7017Z" fill="url(#paint11_linear)"/>
<path d="M78.7582 30.7017H77.676C76.0285 30.7017 74.5824 29.6481 74.0287 28.0964C72.131 22.7766 67.0135 18.9727 61.0343 19.0422C53.5478 19.1295 47.5742 25.339 47.5742 32.8262V35.9456H43.453V33.222C43.453 23.4394 51.4119 15.4793 61.1957 15.4793C70.1225 15.4793 77.5311 22.1084 78.7582 30.7017Z" fill="url(#paint12_linear)"/>
<path d="M87.6155 28.5693C87.279 27.7064 87.7054 26.7341 88.5683 26.3974L91.0034 25.4475C91.8662 25.111 92.8386 25.5374 93.1753 26.4003C93.5118 27.2632 93.0853 28.2355 92.2224 28.5723L89.7874 29.5222C88.9245 29.8589 87.952 29.4322 87.6155 28.5693Z" fill="url(#paint13_linear)"/>
<path d="M87.315 32.0464C87.7947 31.254 88.8258 31.0007 89.6182 31.4802L91.8541 32.8337C92.6465 33.3134 92.8998 34.3446 92.4203 35.1369C91.9406 35.9293 90.9095 36.1827 90.1171 35.7032L87.8812 34.3497C87.0889 33.87 86.8353 32.8386 87.315 32.0464Z" fill="url(#paint14_linear)"/>
<path d="M85.0402 26.2143C85.9296 26.4725 86.86 25.961 87.1182 25.0716L87.8472 22.5617C88.1054 21.6723 87.5938 20.7418 86.7042 20.4836C85.8148 20.2254 84.8843 20.7369 84.6261 21.6266L83.8972 24.1365C83.639 25.0256 84.1505 25.9561 85.0402 26.2143Z" fill="url(#paint15_linear)"/>
<path d="M81.7219 75.1951H42.2797C39.2811 75.1951 36.8504 72.7642 36.8504 69.7658V39.5852C36.8504 36.5866 39.2813 34.1559 42.2797 34.1559H81.7221C84.7207 34.1559 87.1514 36.5868 87.1514 39.5852V69.7658C87.1514 72.7642 84.7205 75.1951 81.7219 75.1951Z" fill="url(#paint16_linear)"/>
<path d="M71.6419 50.8072C71.6419 45.4822 67.325 41.1653 62 41.1653C56.6751 41.1653 52.3581 45.4822 52.3581 50.8072C52.3581 54.577 54.523 57.8392 57.676 59.4247V63.8617C57.676 66.2498 59.6119 68.1857 62 68.1857C64.3881 68.1857 66.324 66.2498 66.324 63.8617V59.4247C69.4772 57.8392 71.6419 54.577 71.6419 50.8072Z" fill="url(#paint17_linear)"/>
<path d="M62 65.6789C60.998 65.6789 60.1826 64.8636 60.1826 63.8614V57.879L58.802 57.1849C56.3736 55.9639 54.8649 53.5201 54.8649 50.8069C54.8649 46.8725 58.0658 43.6718 62 43.6718C65.9342 43.6718 69.1351 46.8727 69.1351 50.8069C69.1351 53.5198 67.6265 55.9639 65.198 57.1849L63.8175 57.879V63.8614C63.8175 64.8634 63.002 65.6789 62 65.6789Z" fill="url(#paint18_linear)"/>
<path d="M36.8494 61.5485V69.7656C36.8494 72.7642 39.2803 75.1948 42.2787 75.1948H81.7211C84.7197 75.1948 87.1504 72.7639 87.1504 69.7656V61.5485H36.8494Z" fill="url(#paint19_linear)"/>
<path d="M0 95.8398V107.222C0 110.262 2.4642 112.726 5.50414 112.726H118.496C121.536 112.726 124 110.262 124 107.222V95.8398H0Z" fill="url(#paint20_linear)"/>
</g>
<defs>
<linearGradient id="paint0_linear" x1="45.994" y1="11.4031" x2="68.8489" y2="117.897" gradientUnits="userSpaceOnUse">
<stop stop-color="#FF9100"/>
<stop offset="1" stop-color="#E63950"/>
</linearGradient>
<linearGradient id="paint1_linear" x1="62" y1="70.0355" x2="62" y2="112.416" gradientUnits="userSpaceOnUse">
<stop stop-color="#FDBF00"/>
<stop offset="1" stop-color="#FF9100"/>
</linearGradient>
<linearGradient id="paint2_linear" x1="86.6425" y1="96.3918" x2="63.036" y2="46.7536" gradientUnits="userSpaceOnUse">
<stop stop-color="#E63950" stop-opacity="0"/>
<stop offset="0.0467" stop-color="#E4354B" stop-opacity="0.047"/>
<stop offset="0.4669" stop-color="#D31822" stop-opacity="0.467"/>
<stop offset="0.7991" stop-color="#C90709" stop-opacity="0.799"/>
<stop offset="1" stop-color="#C50000"/>
</linearGradient>
<linearGradient id="paint3_linear" x1="34.5697" y1="96.001" x2="-27.6107" y2="57.1769" gradientUnits="userSpaceOnUse">
<stop stop-color="#E63950" stop-opacity="0"/>
<stop offset="0.0467" stop-color="#E4354B" stop-opacity="0.047"/>
<stop offset="0.4669" stop-color="#D31822" stop-opacity="0.467"/>
<stop offset="0.7991" stop-color="#C90709" stop-opacity="0.799"/>
<stop offset="1" stop-color="#C50000"/>
</linearGradient>
<linearGradient id="paint4_linear" x1="59.5368" y1="94.9417" x2="-2.64364" y2="56.1173" gradientUnits="userSpaceOnUse">
<stop stop-color="#E63950" stop-opacity="0"/>
<stop offset="0.0467" stop-color="#E4354B" stop-opacity="0.047"/>
<stop offset="0.4669" stop-color="#D31822" stop-opacity="0.467"/>
<stop offset="0.7991" stop-color="#C90709" stop-opacity="0.799"/>
<stop offset="1" stop-color="#C50000"/>
</linearGradient>
<linearGradient id="paint5_linear" x1="87.0045" y1="95.4854" x2="24.6164" y2="56.5314" gradientUnits="userSpaceOnUse">
<stop stop-color="#E63950" stop-opacity="0"/>
<stop offset="0.0467" stop-color="#E4354B" stop-opacity="0.047"/>
<stop offset="0.4669" stop-color="#D31822" stop-opacity="0.467"/>
<stop offset="0.7991" stop-color="#C90709" stop-opacity="0.799"/>
<stop offset="1" stop-color="#C50000"/>
</linearGradient>
<linearGradient id="paint6_linear" x1="107.427" y1="91.6307" x2="67.6425" y2="66.7901" gradientUnits="userSpaceOnUse">
<stop stop-color="#E63950" stop-opacity="0"/>
<stop offset="0.0467" stop-color="#E4354B" stop-opacity="0.047"/>
<stop offset="0.4669" stop-color="#D31822" stop-opacity="0.467"/>
<stop offset="0.7991" stop-color="#C90709" stop-opacity="0.799"/>
<stop offset="1" stop-color="#C50000"/>
</linearGradient>
<linearGradient id="paint7_linear" x1="15.7475" y1="79.5202" x2="27.661" y2="91.4337" gradientUnits="userSpaceOnUse">
<stop stop-color="#EDF5FF"/>
<stop offset="1" stop-color="#D5E8FE"/>
</linearGradient>
<linearGradient id="paint8_linear" x1="42.3443" y1="79.5202" x2="54.2578" y2="91.4337" gradientUnits="userSpaceOnUse">
<stop stop-color="#EDF5FF"/>
<stop offset="1" stop-color="#D5E8FE"/>
</linearGradient>
<linearGradient id="paint9_linear" x1="68.9411" y1="79.5202" x2="80.8546" y2="91.4337" gradientUnits="userSpaceOnUse">
<stop stop-color="#EDF5FF"/>
<stop offset="1" stop-color="#D5E8FE"/>
</linearGradient>
<linearGradient id="paint10_linear" x1="95.5379" y1="79.5202" x2="107.451" y2="91.4337" gradientUnits="userSpaceOnUse">
<stop stop-color="#EDF5FF"/>
<stop offset="1" stop-color="#D5E8FE"/>
</linearGradient>
<linearGradient id="paint11_linear" x1="48.6984" y1="17.3845" x2="65.6159" y2="34.3018" gradientUnits="userSpaceOnUse">
<stop stop-color="#EDF5FF"/>
<stop offset="1" stop-color="#B5DBFF"/>
</linearGradient>
<linearGradient id="paint12_linear" x1="61.1057" y1="32.0034" x2="61.1057" y2="-15.981" gradientUnits="userSpaceOnUse">
<stop stop-color="#B5DBFF" stop-opacity="0"/>
<stop offset="0.2428" stop-color="#93CEF6" stop-opacity="0.243"/>
<stop offset="0.5763" stop-color="#6ABFEC" stop-opacity="0.576"/>
<stop offset="0.8403" stop-color="#51B5E5" stop-opacity="0.84"/>
<stop offset="1" stop-color="#48B2E3"/>
</linearGradient>
<linearGradient id="paint13_linear" x1="90.091" y1="27.3179" x2="90.7667" y2="29.0526" gradientUnits="userSpaceOnUse">
<stop stop-color="#FF637B"/>
<stop offset="1" stop-color="#E63950"/>
</linearGradient>
<linearGradient id="paint14_linear" x1="90.1023" y1="33.6202" x2="89.138" y2="35.2136" gradientUnits="userSpaceOnUse">
<stop stop-color="#FF637B"/>
<stop offset="1" stop-color="#E63950"/>
</linearGradient>
<linearGradient id="paint15_linear" x1="86.3052" y1="23.3832" x2="84.5184" y2="22.8639" gradientUnits="userSpaceOnUse">
<stop stop-color="#FF637B"/>
<stop offset="1" stop-color="#E63950"/>
</linearGradient>
<linearGradient id="paint16_linear" x1="48.7041" y1="41.3788" x2="70.9969" y2="63.6716" gradientUnits="userSpaceOnUse">
<stop stop-color="#FFDA2D"/>
<stop offset="1" stop-color="#FDBF00"/>
<stop offset="1" stop-color="#FDBF00"/>
</linearGradient>
<linearGradient id="paint17_linear" x1="71.7452" y1="63.3193" x2="49.5081" y2="41.0822" gradientUnits="userSpaceOnUse">
<stop stop-color="#FFDA2D"/>
<stop offset="1" stop-color="#FDBF00"/>
</linearGradient>
<linearGradient id="paint18_linear" x1="69.6372" y1="61.2129" x2="52.2101" y2="43.7858" gradientUnits="userSpaceOnUse">
<stop stop-color="#0B799D"/>
<stop offset="1" stop-color="#07485E"/>
</linearGradient>
<linearGradient id="paint19_linear" x1="62" y1="68.7279" x2="62" y2="75.4421" gradientUnits="userSpaceOnUse">
<stop stop-color="#FF9100" stop-opacity="0"/>
<stop offset="1" stop-color="#FF9100"/>
</linearGradient>
<linearGradient id="paint20_linear" x1="62" y1="103.613" x2="62" y2="114.139" gradientUnits="userSpaceOnUse">
<stop stop-color="#E63950" stop-opacity="0"/>
<stop offset="0.0467" stop-color="#E4354B" stop-opacity="0.047"/>
<stop offset="0.4669" stop-color="#D31822" stop-opacity="0.467"/>
<stop offset="0.7991" stop-color="#C90709" stop-opacity="0.799"/>
<stop offset="1" stop-color="#C50000"/>
</linearGradient>
<clipPath id="clip0">
<rect width="124" height="124" fill="white"/>
</clipPath>
</defs>
</svg>
