<svg width="92" height="92" viewBox="0 0 92 92" fill="none" xmlns="http://www.w3.org/2000/svg">
<g clip-path="url(#clip0)">
<path d="M82.6241 92H9.37587C6.43404 92 4.04926 89.6152 4.04926 86.6734V37.7822C4.04926 34.8404 6.43404 32.4556 9.37587 32.4556H82.6239C85.5658 32.4556 87.9506 34.8404 87.9506 37.7822V86.6736C87.9506 89.6152 85.5658 92 82.6241 92Z" fill="url(#paint0_linear)"/>
<path d="M79.7346 88.0723H12.2654C9.9268 88.0723 8.03088 86.1764 8.03088 83.8378V40.6176C8.03088 38.279 9.9268 36.3831 12.2654 36.3831H79.7346C82.0732 36.3831 83.9691 38.279 83.9691 40.6176V83.8378C83.9691 86.1764 82.0732 88.0723 79.7346 88.0723Z" fill="url(#paint1_linear)"/>
<path d="M87.9505 86.6734V57.3901L63.0175 32.4571H28.9825V39.5768C28.9825 40.7793 29.5603 41.8467 30.4533 42.5168L79.9368 92H82.6241C85.5658 92 87.9505 89.6152 87.9505 86.6734Z" fill="url(#paint2_linear)"/>
<path d="M77.6547 85.5198H14.3453C12.1972 85.5198 10.4559 83.7785 10.4559 81.6303V42.8253C10.4559 40.6772 12.1972 38.9359 14.3453 38.9359H77.6549C79.803 38.9359 81.5443 40.6772 81.5443 42.8253V81.6303C81.5443 83.7785 79.8028 85.5198 77.6547 85.5198Z" fill="url(#paint3_linear)"/>
<path d="M34.3218 74.7693H17.1472C15.9541 74.7693 14.987 73.8021 14.987 72.6091V51.8465C14.987 50.6534 15.9542 49.6863 17.1472 49.6863H34.3218C35.5149 49.6863 36.482 50.6536 36.482 51.8465V72.609C36.482 73.8021 35.5149 74.7693 34.3218 74.7693Z" fill="url(#paint4_linear)"/>
<path d="M54.1299 55.9378H42.3511C41.488 55.9378 40.7882 55.2381 40.7882 54.3749V51.2493C40.7882 50.3861 41.488 49.6863 42.3511 49.6863H54.1299C54.993 49.6863 55.6928 50.3861 55.6928 51.2493V54.3749C55.6928 55.2381 54.993 55.9378 54.1299 55.9378Z" fill="#B5DBFF"/>
<path d="M75.4503 55.9378H60.7756C59.9124 55.9378 59.2126 55.2381 59.2126 54.3749V51.2493C59.2126 50.3861 59.9124 49.6863 60.7756 49.6863H75.4503C76.3135 49.6863 77.0132 50.3861 77.0132 51.2493V54.3749C77.013 55.2381 76.3135 55.9378 75.4503 55.9378Z" fill="#B5DBFF"/>
<path d="M69.5608 65.3536H75.4503C76.3135 65.3536 77.0132 64.6539 77.0132 63.7907V60.665C77.0132 59.8019 76.3135 59.1021 75.4503 59.1021H69.5608C68.6977 59.1021 67.9979 59.8019 67.9979 60.665V63.7907C67.9979 64.6539 68.6977 65.3536 69.5608 65.3536Z" fill="#B5DBFF"/>
<path d="M42.3501 65.3536H62.9141C63.7773 65.3536 64.477 64.6539 64.477 63.7907V60.665C64.477 59.8019 63.7773 59.1021 62.9141 59.1021H42.3501C41.487 59.1021 40.7872 59.8019 40.7872 60.665V63.7907C40.7874 64.6539 41.4871 65.3536 42.3501 65.3536Z" fill="#B5DBFF"/>
<path d="M54.129 74.7694H42.3503C41.4871 74.7694 40.7874 74.0696 40.7874 73.2064V70.0808C40.7874 69.2176 41.4871 68.5179 42.3503 68.5179H54.129C54.9922 68.5179 55.6919 69.2176 55.6919 70.0808V73.2064C55.6919 74.0696 54.9922 74.7694 54.129 74.7694Z" fill="#B5DBFF"/>
<path d="M75.4503 74.7694H60.7756C59.9124 74.7694 59.2126 74.0696 59.2126 73.2064V70.0808C59.2126 69.2176 59.9124 68.5179 60.7756 68.5179H75.4503C76.3135 68.5179 77.0132 69.2176 77.0132 70.0808V73.2064C77.013 74.0696 76.3135 74.7694 75.4503 74.7694Z" fill="#B5DBFF"/>
<path d="M46 38.0106C46.8987 38.0106 47.6273 37.282 47.6273 36.3833C47.6273 35.4846 46.8987 34.756 46 34.756C45.1013 34.756 44.3727 35.4846 44.3727 36.3833C44.3727 37.282 45.1013 38.0106 46 38.0106Z" fill="url(#paint5_linear)"/>
<path d="M46 37.4045C46.564 37.4045 47.0212 36.9473 47.0212 36.3833C47.0212 35.8193 46.564 35.3621 46 35.3621C45.436 35.3621 44.9788 35.8193 44.9788 36.3833C44.9788 36.9473 45.436 37.4045 46 37.4045Z" fill="url(#paint6_linear)"/>
<path d="M13.9017 90.4299H12.6931C11.9999 90.4299 11.4379 89.868 11.4379 89.1747V87.9661C11.4379 87.2728 11.9999 86.7109 12.6931 86.7109H13.9017C14.595 86.7109 15.1569 87.2728 15.1569 87.9661V89.1747C15.1567 89.868 14.5948 90.4299 13.9017 90.4299Z" fill="url(#paint7_linear)"/>
<path d="M25.7115 65.8397C29.4594 65.8397 32.4976 62.8014 32.4976 59.0535C32.4976 55.3056 29.4594 52.2674 25.7115 52.2674C21.9636 52.2674 18.9253 55.3056 18.9253 59.0535C18.9253 62.8014 21.9636 65.8397 25.7115 65.8397Z" fill="#07485E"/>
<path d="M34.2556 70.4796C34.7264 71.0096 34.3907 71.8491 33.6843 71.9097C31.661 72.0831 28.982 72.1883 26.0428 72.1883C22.7895 72.1883 19.855 72.0595 17.7758 71.8524C17.0781 71.7829 16.7433 70.9493 17.2127 70.4282C17.2163 70.4242 17.2197 70.4204 17.2233 70.4164C19.3126 68.0951 22.3412 66.636 25.7106 66.636C29.0437 66.636 32.0411 68.0623 34.1286 70.3391C34.1713 70.3856 34.2137 70.4323 34.2556 70.4796Z" fill="#07485E"/>
<path d="M69.4963 38.9359H29.3437V39.5766C29.3437 40.7791 29.5605 41.8465 30.4534 42.5166L73.4566 85.5198H77.6549C79.803 85.5198 81.5443 83.7785 81.5443 81.6303V50.9839L69.4963 38.9359Z" fill="url(#paint8_linear)"/>
<path d="M59.9266 16.6933H54.6713V14.4714C54.6713 9.38959 50.5368 5.25536 45.4552 5.25536C40.3734 5.25536 36.2392 9.38977 36.2392 14.4714V16.6933H30.9838V14.4714C30.9838 6.49177 37.4756 0 45.4552 0C53.4347 0 59.9266 6.49177 59.9266 14.4714V16.6933Z" fill="url(#paint9_linear)"/>
<path d="M45.4552 2.84552C38.8357 2.84552 33.4505 8.23077 33.4505 14.8503V16.6933H36.2392V14.4714C36.2392 9.38961 40.3736 5.25538 45.4552 5.25538C50.537 5.25538 54.6713 9.38979 54.6713 14.4714V16.6933H57.4599V14.8501C57.4598 8.23077 52.0745 2.84552 45.4552 2.84552Z" fill="url(#paint10_linear)"/>
<path d="M59.3438 43.2503H32.6562C30.6273 43.2503 28.9825 41.6056 28.9825 39.5766V19.1558C28.9825 17.127 30.6273 15.4821 32.6562 15.4821H59.3438C61.3727 15.4821 63.0175 17.127 63.0175 19.1558V39.5768C63.0175 41.6055 61.3727 43.2503 59.3438 43.2503Z" fill="url(#paint11_linear)"/>
<path d="M52.5239 26.7489C52.5239 23.1459 49.603 20.225 46 20.225C42.397 20.225 39.4761 23.1459 39.4761 26.7489C39.4761 29.2997 40.9409 31.5069 43.0742 32.5797V35.5818C43.0742 37.1976 44.384 38.5076 46 38.5076C47.6158 38.5076 48.9258 37.1978 48.9258 35.5818V32.5797C51.0593 31.5069 52.5239 29.2997 52.5239 26.7489Z" fill="url(#paint12_linear)"/>
<path d="M46 36.8114C45.3219 36.8114 44.7703 36.2597 44.7703 35.5816V31.5338L43.836 31.0641C42.1928 30.2379 41.172 28.5844 41.172 26.7487C41.172 24.0867 43.3378 21.9209 45.9998 21.9209C48.6619 21.9209 50.8276 24.0867 50.8276 26.7487C50.8276 28.5844 49.8068 30.2381 48.1636 31.0641L47.2294 31.5338V35.5816C47.2297 36.2597 46.6781 36.8114 46 36.8114Z" fill="url(#paint13_linear)"/>
<path d="M28.9825 34.0167V39.5766C28.9825 41.6055 30.6272 43.2503 32.6562 43.2503H59.3438C61.3727 43.2503 63.0175 41.6056 63.0175 39.5766V34.0167H28.9825Z" fill="url(#paint14_linear)"/>
</g>
<defs>
<linearGradient id="paint0_linear" x1="28.7875" y1="45.0153" x2="85.0661" y2="101.294" gradientUnits="userSpaceOnUse">
<stop stop-color="#0B799D"/>
<stop offset="1" stop-color="#07485E"/>
</linearGradient>
<linearGradient id="paint1_linear" x1="74.6524" y1="90.8801" x2="8.13098" y2="24.3589" gradientUnits="userSpaceOnUse">
<stop stop-color="#0B799D"/>
<stop offset="1" stop-color="#07485E"/>
</linearGradient>
<linearGradient id="paint2_linear" x1="71.1663" y1="75.3285" x2="49.4507" y2="30.1425" gradientUnits="userSpaceOnUse">
<stop stop-color="#07485E" stop-opacity="0"/>
<stop offset="1" stop-color="#03232E"/>
</linearGradient>
<linearGradient id="paint3_linear" x1="27.6676" y1="43.8956" x2="64.3612" y2="80.5891" gradientUnits="userSpaceOnUse">
<stop stop-color="#EDF5FF"/>
<stop offset="1" stop-color="#D5E8FE"/>
</linearGradient>
<linearGradient id="paint4_linear" x1="12.7808" y1="49.2741" x2="41.7386" y2="78.232" gradientUnits="userSpaceOnUse">
<stop stop-color="#B9DD39"/>
<stop offset="1" stop-color="#0B799D"/>
</linearGradient>
<linearGradient id="paint5_linear" x1="48.4409" y1="38.8242" x2="42.8857" y2="33.269" gradientUnits="userSpaceOnUse">
<stop stop-color="#0B799D"/>
<stop offset="1" stop-color="#07485E"/>
</linearGradient>
<linearGradient id="paint6_linear" x1="44.4681" y1="34.8514" x2="47.9544" y2="38.3377" gradientUnits="userSpaceOnUse">
<stop stop-color="#0B799D"/>
<stop offset="1" stop-color="#07485E"/>
</linearGradient>
<linearGradient id="paint7_linear" x1="12.3944" y1="87.6675" x2="16.4215" y2="91.6946" gradientUnits="userSpaceOnUse">
<stop stop-color="#B9DD39"/>
<stop offset="1" stop-color="#0B799D"/>
</linearGradient>
<linearGradient id="paint8_linear" x1="64.1458" y1="71.2499" x2="47.6454" y2="22.9798" gradientUnits="userSpaceOnUse">
<stop stop-color="#B5DBFF" stop-opacity="0"/>
<stop offset="0.1734" stop-color="#8FC5E9" stop-opacity="0.173"/>
<stop offset="0.4541" stop-color="#56A4C8" stop-opacity="0.454"/>
<stop offset="0.6955" stop-color="#2D8DB1" stop-opacity="0.696"/>
<stop offset="0.8853" stop-color="#147EA2" stop-opacity="0.885"/>
<stop offset="1" stop-color="#0B799D"/>
</linearGradient>
<linearGradient id="paint9_linear" x1="37.1518" y1="4.28666" x2="50.6924" y2="17.8271" gradientUnits="userSpaceOnUse">
<stop stop-color="#EDF5FF"/>
<stop offset="1" stop-color="#B5DBFF"/>
</linearGradient>
<linearGradient id="paint10_linear" x1="45.4552" y1="14.0259" x2="45.4552" y2="-18.4411" gradientUnits="userSpaceOnUse">
<stop stop-color="#B5DBFF" stop-opacity="0"/>
<stop offset="0.2428" stop-color="#93CEF6" stop-opacity="0.243"/>
<stop offset="0.5763" stop-color="#6ABFEC" stop-opacity="0.576"/>
<stop offset="0.8403" stop-color="#51B5E5" stop-opacity="0.84"/>
<stop offset="1" stop-color="#48B2E3"/>
</linearGradient>
<linearGradient id="paint11_linear" x1="37.0033" y1="20.3693" x2="52.087" y2="35.4532" gradientUnits="userSpaceOnUse">
<stop stop-color="#FFDA2D"/>
<stop offset="1" stop-color="#FDBF00"/>
</linearGradient>
<linearGradient id="paint12_linear" x1="52.5939" y1="35.2147" x2="37.5477" y2="20.1686" gradientUnits="userSpaceOnUse">
<stop stop-color="#FFDA2D"/>
<stop offset="1" stop-color="#FDBF00"/>
</linearGradient>
<linearGradient id="paint13_linear" x1="51.1675" y1="33.7898" x2="39.376" y2="21.9981" gradientUnits="userSpaceOnUse">
<stop stop-color="#0B799D"/>
<stop offset="1" stop-color="#07485E"/>
</linearGradient>
<linearGradient id="paint14_linear" x1="46" y1="38.8743" x2="46" y2="43.4175" gradientUnits="userSpaceOnUse">
<stop stop-color="#FF9100" stop-opacity="0"/>
<stop offset="1" stop-color="#FF9100"/>
</linearGradient>
<clipPath id="clip0">
<rect width="92" height="92" fill="white"/>
</clipPath>
</defs>
</svg>
