<svg width="28" height="28" viewBox="0 0 28 28" fill="none" xmlns="http://www.w3.org/2000/svg">
<g clip-path="url(#clip0)">
<path d="M27.9294 23.9926C27.8063 23.4013 27.2272 23.0217 26.6356 23.1448C26.0442 23.2679 25.6647 23.8471 25.7878 24.4385C25.8587 24.7791 25.7742 25.1283 25.5562 25.3965C25.4298 25.5519 25.1481 25.8125 24.6812 25.8125H3.31951C2.85259 25.8125 2.57089 25.5519 2.44456 25.3965C2.22641 25.1283 2.14198 24.7791 2.21291 24.4385C3.348 18.9864 8.15695 15.0037 13.7104 14.8694C13.8066 14.8731 13.9032 14.875 14.0004 14.875C14.0978 14.875 14.1948 14.8731 14.2914 14.8694C18.2033 14.9632 21.819 16.9446 24.0087 20.2101C24.345 20.7119 25.0244 20.8459 25.5262 20.5095C26.0279 20.1731 26.162 19.4937 25.8255 18.992C24.0309 16.3154 21.4248 14.369 18.4535 13.3911C20.2642 12.0332 21.4379 9.86984 21.4379 7.4375C21.4379 3.33648 18.1014 0 14.0004 0C9.89929 0 6.56286 3.33648 6.56286 7.4375C6.56286 9.87131 7.73798 12.0358 9.5506 13.3936C7.88985 13.9403 6.33153 14.7911 4.96763 15.913C2.46666 17.9701 0.727759 20.8395 0.0713448 23.9926C-0.13439 24.9806 0.112087 25.9954 0.747446 26.7767C1.37969 27.5541 2.3172 28 3.31951 28H24.6812C25.6835 28 26.621 27.5541 27.2532 26.7767C27.8887 25.9954 28.1351 24.9806 27.9294 23.9926ZM8.75036 7.4375C8.75036 4.54262 11.1055 2.1875 14.0004 2.1875C16.8952 2.1875 19.2504 4.54262 19.2504 7.4375C19.2504 10.2432 17.038 12.542 14.2661 12.6808C14.1777 12.6792 14.0891 12.6784 14.0004 12.6784C13.9121 12.6784 13.8238 12.6792 13.7357 12.6809C10.9633 12.5426 8.75036 10.2436 8.75036 7.4375Z" fill="url(#paint0_linear)"/>
</g>
<defs>
<linearGradient id="paint0_linear" x1="0.000378481" y1="14" x2="28.0003" y2="14" gradientUnits="userSpaceOnUse">
<stop stop-color="#A8C8D9"/>
</linearGradient>
<clipPath id="clip0">
<rect width="28" height="28" fill="white"/>
</clipPath>
</defs>
</svg>
