<svg width="25" height="25" viewBox="0 0 25 25" fill="none" xmlns="http://www.w3.org/2000/svg">
<path d="M24.9074 12.2041C24.7105 11.9177 19.9792 5.20819 12.5 5.20819C6.08213 5.20819 0.363294 11.8791 0.122665 12.1635C-0.0408629 12.3573 -0.0408629 12.6417 0.122665 12.8364C0.363294 13.1208 6.08213 19.7918 12.5 19.7918C18.9178 19.7918 24.6366 13.1208 24.8772 12.8364C25.0283 12.6573 25.0418 12.3979 24.9074 12.2041ZM12.5 18.7501C7.3551 18.7501 2.46333 13.8438 1.22063 12.5C2.46128 11.1552 7.34783 6.24991 12.5 6.24991C18.5198 6.24991 22.7689 11.149 23.8064 12.4719C22.6084 13.7729 17.6886 18.7501 12.5 18.7501Z" fill="#A8C8D9"/>
<path d="M12.5 8.33325C10.202 8.33325 8.33324 10.202 8.33324 12.5C8.33324 14.7979 10.202 16.6667 12.5 16.6667C14.7979 16.6667 16.6667 14.7979 16.6667 12.5C16.6667 10.202 14.7979 8.33325 12.5 8.33325ZM12.5 15.6251C10.777 15.6251 9.3749 14.223 9.3749 12.5C9.3749 10.7771 10.777 9.37497 12.5 9.37497C14.2229 9.37497 15.625 10.7771 15.625 12.5C15.625 14.223 14.2229 15.6251 12.5 15.6251Z" fill="#A8C8D9"/>
</svg>
