<svg width="25" height="25" viewBox="0 0 25 25" fill="none" xmlns="http://www.w3.org/2000/svg">
<g clip-path="url(#clip0)">
<path d="M9.55413 9.5538C9.75725 9.35068 10.0875 9.35068 10.2906 9.5538C10.4937 9.75693 10.4937 10.0882 10.2906 10.2903C9.701 10.8799 9.37498 11.6643 9.37498 12.4997C9.37498 14.2226 10.7771 15.6247 12.5 15.6247C13.3354 15.6247 14.1197 15.2997 14.7093 14.709C14.9125 14.5059 15.2427 14.5059 15.4458 14.709C15.6489 14.9111 15.6489 15.2424 15.4458 15.4455C14.6604 16.233 13.6135 16.6663 12.5 16.6663C10.2021 16.6663 8.33333 14.7976 8.33333 12.4997C8.33333 11.3861 8.76663 10.3392 9.55413 9.5538Z" fill="#A8C8D9"/>
<path d="M11.7739 8.40482C12.0104 8.36317 12.2521 8.33295 12.5 8.33295C14.7979 8.33295 16.6666 10.2017 16.6666 12.4996C16.6666 12.7475 16.6364 12.9892 16.5937 13.2256C16.5489 13.4777 16.3291 13.6558 16.0822 13.6558C16.052 13.6558 16.0218 13.6537 15.9906 13.6475C15.7083 13.5975 15.5187 13.3266 15.5687 13.0444C15.601 12.8673 15.625 12.6871 15.625 12.4996C15.625 10.7767 14.2229 9.3746 12.5 9.3746C12.3125 9.3746 12.1322 9.39857 11.9552 9.42982C11.6781 9.48607 11.4021 9.29022 11.3521 9.00795C11.3021 8.72567 11.4916 8.45482 11.7739 8.40482Z" fill="#A8C8D9"/>
<path d="M0.123983 12.1632C0.241708 12.0236 3.05938 8.73505 6.94584 6.72153C7.19794 6.58926 7.51562 6.68926 7.64794 6.94551C7.78021 7.20073 7.68021 7.51528 7.42397 7.64761C4.43022 9.1976 2.03858 11.6163 1.22086 12.4997C2.4625 13.8445 7.34897 18.7497 12.5 18.7497C14.2479 18.7497 16.0093 18.3278 17.7375 17.4945C17.9937 17.3684 18.3072 17.4778 18.4322 17.7372C18.5583 17.9955 18.4489 18.307 18.1895 18.432C16.3197 19.3351 14.4051 19.7913 12.4999 19.7913C6.08222 19.7913 0.363486 13.1205 0.122861 12.8361C-0.0416402 12.6423 -0.0406158 12.3579 0.123983 12.1632Z" fill="#A8C8D9"/>
<path d="M9.08228 5.80795C10.2677 5.40897 11.4177 5.20795 12.5 5.20795C18.9177 5.20795 24.6364 11.8788 24.8771 12.1632C25.0292 12.3423 25.0417 12.6028 24.9062 12.7975C24.8343 12.9007 23.1125 15.3454 20.1281 17.3277C20.0396 17.3871 19.9406 17.4153 19.8406 17.4153C19.6729 17.4153 19.5073 17.334 19.4073 17.1809C19.2479 16.9423 19.3135 16.6184 19.5531 16.46C21.7447 15.0028 23.2447 13.2434 23.8062 12.5278C22.6072 11.2257 17.6885 6.24964 12.5 6.24964C11.5302 6.24964 10.4917 6.43299 9.4146 6.79442C9.1417 6.89232 8.84586 6.74129 8.75523 6.46732C8.66353 6.19442 8.80938 5.89964 9.08228 5.80795Z" fill="#A8C8D9"/>
<path d="M3.27813 3.27774C3.48125 3.07462 3.81147 3.07462 4.0146 3.27774L21.7229 20.9861C21.926 21.1892 21.926 21.5194 21.7229 21.7225C21.6208 21.8236 21.4875 21.8746 21.3541 21.8746C21.2208 21.8746 21.0875 21.8236 20.9864 21.7225L3.27813 4.01421C3.075 3.81109 3.075 3.48086 3.27813 3.27774Z" fill="#A8C8D9"/>
</g>
<defs>
<clipPath id="clip0">
<rect width="25" height="25" fill="white" transform="matrix(-1 0 0 1 25 0)"/>
</clipPath>
</defs>
</svg>
